<svg width="800" height="800" viewBox="-7 0 32 32" xmlns="http://www.w3.org/2000/svg"><path d="m15.96 17.04-1.68-1.16 1.68-1.28v2.44zm-3.08-2.2-3.2-2.28V8.84l5.72 4.04-2.52 1.96zM8.8 17.92l-2.64-2.04L8.8 14l2.64 1.88-2.64 2.04zm-.84-5.36-3.2 2.28-2.52-1.92 5.72-4.04v3.68zM1.68 14.6l1.68 1.28-1.68 1.16V14.6zm3.04 2.32 3.24 2.48v3.64l-5.72-4.36 2.48-1.76zm4.92 2.48 3.24-2.48 2.48 1.76-5.72 4.36V19.4zM8.16 6.56.48 12.12c-.28.2-.48.56-.48.92v5.6c0 .36.16.68.44.92l7.68 5.88c.4.32.96.32 1.4 0l7.68-5.88c.28-.2.44-.56.44-.92v-5.6c0-.36-.16-.72-.48-.92L9.48 6.56c-.4-.28-.92-.28-1.32 0z"/></svg>