<svg height="1558" viewBox="0 0 937 1558" width="937" xmlns="http://www.w3.org/2000/svg"><g fill="none"><path d="m728 1275.38h-519.62l11.7 71.2v201.65c0 5.1 2.89 9.15 6.3 8.83 53.76-4.91 434.44-39.78 483.26-46.06 2.9-.38 5.12-4 5.1-8.38-.17-40.45 1.53-156 1.53-156z" fill="#4aeadc"/><path d="m169.09 1036.35 38.66 235.22h520.85l38.67-235.22z" fill="#9778d1"/><g fill="#fff" transform="translate(169.09 1036.35)"><path d="m38.66 235.22h520.85l6.28-38.17h-533.4z" opacity=".2"/><path d="m32.18 195.78h533.81l6.28-38.16h-546.36z" opacity=".15"/><path d="m25.7 156.34h284.21 262.57l6.27-38.16h-559.33z" opacity=".1"/><path d="m12.94 78.74 6.28 38.17h559.74l6.27-38.17z" opacity=".05"/><path d="m598.18 0h-598.18l12.94 78.74h572.29z" opacity=".05"/></g><path d="m168.46 1032.53h599.43l48.25-293.44h-695.91z" fill="#cf2aba"/><g fill="#fff" transform="translate(119.87 739.09)"><path d="m48.66 293.44h599.43l6.27-38.14h-611.97z" opacity=".4"/><path d="m42.18 254.03h612.39l6.27-38.15h-624.93z" opacity=".35"/><path d="m35.7 214.61h625.35l6.27-38.15h-637.89z" opacity=".3"/><path d="m29.22 175.19h638.31l6.27-38.14h-650.85z" opacity=".25"/><path d="m22.74 135.78h651.27l6.27-38.15h-663.8z" opacity=".2"/><path d="m0 0 16.27 96.36h664.22l15.85-96.36z" opacity=".15"/></g><path d="m845.85 558.27h-755.35l29.18 177.48h697z" fill="#ee2c82"/><path d="m89.88 554.46h756.6l38.66-235.23h-833.93z" fill="#fb6962"/><g fill="#fff" transform="translate(70.28 435.26)"><path d="m19.6 119.2h756.6l6.39-38.87h-769.38z" opacity=".15"/><path d="m13 79.03h769.8l6.39-38.87h-782.58z" opacity=".1"/><path d="m6.39 38.87h783.01l6.39-38.87h-795.79z" opacity=".05"/></g><path d="m929.35 0h-922.35c-3.86599325 0-7 3.13400675-7 7 0 .38176877.03023681.76293797.09 1.14l50.5 307.28h835.18l50.49-307.28c.601179-3.79901055-1.975426-7.37142601-5.77-8-.375666-.0769499-.756878-.12376549-1.14-.14z" fill="#fcb900"/><g fill="#fff" transform="translate(18.4 119.61)"><path d="m6.27 38.14h887.01l6.28-38.14h-899.56z" opacity=".1"/><path d="m12.75 77.56h874.06l6.27-38.14h-886.6z" opacity=".2"/><path d="m25.71 156.39h848.14l6.27-38.14h-860.68z" opacity=".4"/><path d="m19.23 116.98h861.1l6.27-38.15h-873.64z" opacity=".3"/><path d="m32.19 195.81h835.18l6.27-38.15h-847.73z" opacity=".5"/></g><path d="m0 19.93v-19.38l3.43-.47v19.85zm14.1-1.54c-.8674145 1.227914-2.2669027 1.970348-3.77 2-2.1372295.1487809-3.99056603-1.4628161-4.14-3.6-.0048254-.0565639-.0048254-.1134361 0-.17 0-2.47 1.8-4.55 7.92-4.76v-.32c0-1.79-.76-2.55-2.67-2.55-1.57327198.10618124-3.09709103.59352878-4.44 1.42l-.69-2.7c1.69220555-1.00609148 3.62136133-1.54446054 5.59-1.56 4.12 0 5.72 1.83 5.63 5.51v4.79c0 1 .18 1.16 1.19 1.21l-.26 2.59c-2.55.29-3.74-.5-4.24-1.83zm0-4.76c-3.34.41-4.56 1.07-4.56 2.5.01307819.4774512.21538202.9301291.5623654 1.2583566.3469833.3282275.8101936.50509 1.2876346.4916434h.18c.9758017-.008629 1.9023068-.430098 2.55-1.16zm11.08 6.76c-1.8071238-.0052126-3.5879465-.433295-5.2-1.25l.76-2.67c1.3812771.7812332 2.9335911 1.2105236 4.52 1.25 1.34 0 2.21-.55 2.21-1.48s-1.13-1.42-2.7-1.8c-2.52-.58-4.53-1.62-4.53-4.14s2.12-4.18 5.34-4.18c1.6813245.00291233 3.3423066.3678509 4.87 1.07l-.75 2.67c-1.3087662-.66287107-2.7442526-1.03793879-4.21-1.1-1.24 0-2 .46-2 1.33s1.13 1.37 2.7 1.74c2.55.61 4.55 1.6 4.55 4.21s-2.17 4.35-5.56 4.35zm13.07-.03c-3 0-4.55-1.3-4.43-4.52l.2-6.3-2.09-.23.09-2.18 2.09-.66v-3h3.31l-.06 3.13h3.77l-.08 2.81h-3.89l-.17 6.18c-.0723403.4126749.0232637.8371453.2655383 1.1789591s.6111201.5726131 1.0244617.6410409c.1590293.0249245.3209707.0249245.48 0 .7111809-.0211898 1.413976-.1597215 2.08-.41l.47 2.79c-.9799599.36337-2.0149318.5561589-3.06.57zm16.42.03c-1.8043694-.0015406-3.5827864-.4298684-5.19-1.25l.75-2.67c1.3812771.7812332 2.9335911 1.2105236 4.52 1.25 1.34 0 2.21-.55 2.21-1.48s-1.13-1.42-2.7-1.8c-2.52-.58-4.52-1.62-4.52-4.14s2.11-4.18 5.33-4.18c1.684527.0030389 3.3487423.36793856 4.88 1.07l-.76 2.67c-1.3057224-.6614949-2.7376534-1.03652445-4.2-1.1-1.25 0-2 .46-2 1.33s1.13 1.37 2.69 1.74c2.56.61 4.56 1.6 4.56 4.21s-2.15 4.35-5.57 4.35zm13.08-.03c-3 0-4.56-1.3-4.44-4.52l.2-6.3-2.09-.23.09-2.18 2.09-.66.06-3h3.3l-.05 3.13h3.77l-.09 2.81h-3.89l-.13 6.2c-.0723403.4126749.0232637.8371453.2655383 1.1789591s.6111201.5726131 1.0244617.6410409c.1590293.0249245.3209707.0249245.48 0 .7144302-.0211864 1.4205154-.1597008 2.09-.41l.46 2.79c-1.0048635.371454-2.0687074.5577961-3.14.55zm12.53-.7-.79 2.09c-1.33 3.66-2.84 4.76-5.31 4.76-1.1735328-.0082044-2.3308894-.2744989-3.39-.78l1-2.82c.6491285.3710173 1.3740065.5898484 2.12.64 1 0 1.51-.43 2.24-2.26l.58-1.54-5.22-13.2h3.68l3.33 9.58 3.2-9.58h3.65zm6.87.27v-19.38l3.42-.47v19.85zm9.65-5.95c.0209919.9919841.4353047 1.9349726 1.1517439 2.6214039s1.6762817 1.0600418 2.6682561 1.0385961h.18c1.473327-.0222916 2.913575-.4402054 4.17-1.21l.44 2.84c-1.506561.7460886-3.168977 1.1231315-4.85 1.1-4.29 0-7.13-2.73-7.13-7s2.9-7.25 6.9-7.25c3.54 0 5.51 2.14 5.51 5.42-.000925.7559668-.09838 1.5087213-.29 2.24l-8.76.11zm5.83-2.12v-.25c0-1.8-.78-2.93-2.55-2.93-1.7376234.05701676-3.1329832 1.4523766-3.19 3.19zm15.17 8.12-4-13.43h3.56l2.32 9.4 2.67-9.37h3.43l2.87 9.31 2-9.34h3.62l-3.91 13.43h-3.37l-3-9.39-2.91 9.39zm20.33-15.86c-1.137707 0-2.06-.92229342-2.06-2.06s.922293-2.06 2.06-2.06 2.06.92229342 2.06 2.06-.922293 2.06-2.06 2.06zm-1.71 15.81v-13.32l3.42-.49v13.78zm15.77 0v-8.16c0-2-.78-2.63-2.32-2.63-1.104112.02843238-2.15715.47106532-2.95 1.24v9.55h-3.43v-13.32l3.43-.46v2.11c1.103029-1.29704689 2.698668-2.0731079 4.4-2.14 2.7 0 4.3 1.74 4.3 4.61v9.2zm11.14.46c-1.804369-.0015406-3.582786-.4298684-5.19-1.25l.75-2.67c1.384877.7812867 2.94043 1.2105232 4.53 1.25 1.33 0 2.2-.55 2.2-1.48s-1.13-1.42-2.7-1.8c-2.52-.58-4.52-1.62-4.52-4.14s2.12-4.18 5.33-4.18c1.684527.0030389 3.348742.36793856 4.88 1.07l-.76 2.67c-1.305722-.6614949-2.737653-1.03652445-4.2-1.1-1.25 0-2 .46-2 1.33s1.13 1.37 2.69 1.74c2.56.61 4.56 1.6 4.56 4.21s-2.15 4.35-5.57 4.35z" fill="#000" transform="translate(383.43 1447.39)"/><path d="m53.16 36.2306296c-9.43 0-16.62-5.87-16.62-16.63 0-10.09999998 7.24-16.77999998 16.73-16.77999998s16.67 5.82 16.67 16.57999998c0 10.09-7.29 16.83-16.78 16.83zm0-26.87999998c-5.4 0-8.46 4.07999998-8.46 9.99999998 0 6.12 3.16 10.3 8.62 10.3s8.46-4.13 8.46-10.1-3.18-10.19999998-8.62-10.19999998zm29.44 26.10999998h-7.85v-23.3l7.85-1v3.46c1.38-2.39 3.21-3.67 5.71-3.67 1.370582.018354 2.7173333.3610388 3.93 1l-1.58 6.94c-.9298604-.4715054-1.9574291-.7181219-3-.72-1.94 0-3.67 1-5.1 3.47zm27.63-33.70999998 7.85-1v34.67999998h-7.85v-2.39c-1.6792 1.9231699-4.078607 3.0667785-6.63 3.16-5.86 0-10.15-4.79-10.15-12.28 0-7.86 5.51-12.86 11.89-12.86 1.664094.0014711 3.316454.2785539 4.89.82zm-3.62 15.09999998c-3.31 0-5.3 2.7-5.3 6.63s2 6.42 4.94 6.42c1.504523.0505547 2.959325-.5422774 4-1.63v-10.4c-1.087267-.6954014-2.360122-1.0441289-3.65-1zm23.56 8.62c.26 3.16 2.45 5 6.28 5 2.736724-.0876186 5.405171-.8761017 7.75-2.29l.76 6.07c-2.895211 1.3206467-6.048198 1.9799387-9.23 1.93-8.06 0-13.26-4.48-13.26-12.39 0-7.75 5.31-12.8 12.85-12.8 6.74 0 10.41 4 10.41 10-.009388 1.4082649-.18051 2.8107907-.51 4.18l-15.05.25zm8.26-4.08v-.46c0-2.81-1.17-4.54-3.62-4.54-2.7 0-4.33 2.34-4.59 5.05zm19.59 14.07h-7.85v-23.3l7.85-1v3.46c1.38-2.39 3.21-3.67 5.71-3.67 1.370582.018354 2.717333.3610388 3.93 1l-1.58 6.94c-.92986-.4715054-1.957429-.7181219-3-.72-1.94 0-3.67 1-5.1 3.47zm31.72.77c-7.14 0-12.6-4.49-12.6-12.55s5.71-12.7 12.91-12.7 12.54 4.59 12.54 12.55-5.76 12.7-12.85 12.7zm.1-19.28c-3.21 0-4.89 2.6-4.89 6.68s1.73 6.58 4.94 6.58 4.9-2.55 4.9-6.63-1.74-6.63-5-6.63zm32.64-9.32999998c-1.260824-.5638549-2.619528-.87635681-4-.92-2 0-2.75 1.17-2.75 3.46999998v1.87h6.63l-.15 6.17h-6.12v17.24h-7.86v-17.18l-4.08-.31.21-5 3.82-1.12v-1.99999998c.21-6.88 3.32-9.84 9.28-9.84 2.197912-.01867613 4.379545.37829296 6.43 1.17.07.02-1.41 6.5-1.41 6.45zm-189.88 74.83999998h-8l-2.35-6.78h-11.9l-2.29 6.78h-8.06l11.32-31.87h10.15zm-16.26-25.6-4.24 12.5h8.32zm33.64 1.12c5.86 0 10.14 4.8 10.14 12.34 0 7.86-5.45 12.85-11.88 12.85-1.657625-.0221666-3.3038388-.2780199-4.89-.76v10.63h-7.86v-33.86l7.86-1v3c1.6698119-1.9409739 4.0715458-3.1001818 6.63-3.2zm-6.63 18.36c1.0822288.6817127 2.3412976 1.0295218 3.62 1 3.36 0 5.3-2.65 5.3-6.58s-1.73-6.47-4.95-6.47c-1.4987346-.0190857-2.94147.568829-4 1.63zm35.7-18.36c5.86 0 10.14 4.8 10.14 12.34 0 7.86-5.45 12.85-11.88 12.85-1.657625-.0221666-3.3038388-.2780199-4.89-.76v10.63h-7.82v-33.86l7.86-1v3c1.6611826-1.9300682 4.0459552-3.0880761 6.59-3.2zm-6.63 18.36c1.0822288.6817127 2.3412976 1.0295218 3.62 1 3.36 0 5.3-2.65 5.3-6.58s-1.73-6.47-4.95-6.47c-1.4987346-.0190857-2.94147.568829-4 1.63zm27.64-3.87c.25 3.16 2.45 5 6.27 5 2.736724-.0876186 5.405171-.8761017 7.75-2.29l.77 6.07c-2.895211 1.3206467-6.048198 1.9799387-9.23 1.93-8.06 0-13.26-4.48-13.26-12.39 0-7.75 5.3-12.8 12.85-12.8 6.73 0 10.400001 4 10.400001 10 .000543 1.4088842-.170721 2.8125775-.510001 4.18l-15 .25zm8.26-4.08v-.46c0-2.81-1.17-4.54-3.62-4.54-2.7 0-4.34 2.34-4.59 5.05zm24.53 11.22c-1.68 2-3.57 3.62-6.83 3.62-4.08 0-7.25-2.91-7.25-6.58 0-4.49 3.37-8.11 14-8.42v-.46c0-2.49-1.28-3.62-4.18-3.62-2.830773.1958623-5.583182 1.015438-8.06 2.4l-1.63-5.76c3.358656-1.7981395 7.100595-2.7619202 10.91-2.81 8.21 0 10.91 3.73 10.81 10.36v7c0 1.63.31 1.79 1.94 1.94l-.77 5.61c-5.15.66-7.7-.71-8.77-3.31zm-.05-7.71c-4.85.57-6.63 1.48-6.63 3.57 0 1.53 1.22 2.55 3 2.55 1.393787.0264343 2.731291-.549385 3.67-1.58zm21.16 10.56h-7.85v-23.3l7.85-1v3.46c1.38-2.39 3.22-3.67 5.72-3.67 1.367392.0184125 2.710885.3611403 3.92 1l-1.58 6.94c-.92986-.4715054-1.957429-.7181219-3-.72-1.93 0-3.67 1-5.1 3.47zm25.25-2.85c-1.69 2-3.57 3.62-6.84 3.62-4.08 0-7.24-2.91-7.24-6.58 0-4.49 3.37-8.11 14-8.42v-.46c0-2.49-1.28-3.62-4.18-3.62-2.830773.1958623-5.583182 1.015438-8.06 2.4l-1.63-5.76c3.358656-1.7981395 7.100595-2.7619202 10.91-2.81 8.21 0 10.91 3.73 10.81 10.36v7c0 1.63.31 1.79 1.94 1.94l-.77 5.61c-5.15.66-7.7-.71-8.77-3.31zm-.05-7.71c-4.85.57-6.63 1.48-6.63 3.57 0 1.53 1.22 2.55 2.95 2.55 1.39725.029337 2.738978-.5467309 3.68-1.58zm28.81 10.56v-14c0-2.86-1.27-3.78-3.37-3.78-1.597069.0554412-3.118979.6919412-4.28 1.79v16h-7.85v-23.3l7.85-1v3.87c1.952288-2.4515403 4.869242-3.9391867 8-4.08 4.74 0 7.54 3.11 7.54 8.16v16.32zm24.94.77c-7.85 0-12.85-4.39-12.85-12.45 0-7.85 5.1-12.8 13-12.8 2.994728-.0584733 5.956978.6288237 8.62 2l-1.53 5.92c-1.904806-1.1244185-4.059644-1.7567792-6.27-1.84-3.77 0-5.86 2.65-5.86 6.48 0 4.23 2.39 6.58 6.06 6.58 2.220641.0103391 4.398522-.6104264 6.28-1.79l1.17 6c-2.666181 1.3527819-5.63216 2.0065359-8.62 1.9zm19.23-10.76c.25 3.16 2.45 5 6.27 5 2.736724-.0876186 5.405171-.8761017 7.75-2.29l.77 6.07c-2.895211 1.3206467-6.048198 1.9799387-9.23 1.93-8.06 0-13.26-4.48-13.26-12.39 0-7.75 5.3-12.8 12.85-12.8 6.73 0 10.400001 4 10.400001 10 .000543 1.4088842-.170721 2.8125775-.510001 4.18l-15 .25zm8.26-4.08v-.46c0-2.81-1.17-4.54-3.62-4.54-2.7 0-4.34 2.34-4.59 5.05z" fill="#000" transform="translate(333.4 1332.9594)"/><g transform="translate(393.8799 1240.05)"><path d="m2.32009144 12.62c-1.24264069 0-2.25-1.0073593-2.25-2.25 0-1.24264069 1.00735931-2.25 2.25-2.25 1.24264068 0 2.25 1.00735931 2.25 2.25 0 1.2426407-1.00735932 2.25-2.25 2.25zm0 8.56c-.5915609.0243572-1.16852597-.1875307-1.60371907-.5889588s-.69288729-.9594414-.71628093-1.5510412v-.09c-.0053284-.5861356.2224153-1.1503787.63312513-1.5685901.41070982-.4182114.97073885-.6561295 1.55687487-.6614099h.13c.57830255-.0243686 1.14255606.1822474 1.56837493.5743009.42581888.3920535.6782422.9373559.70162507 1.5156991v.14c.01886343.5835574-.19501652 1.1506796-.59453102 1.5764533-.3995145.4257736-.9518928.6752741-1.53546898.6935467zm7.88999996-.38-3.99999996-13.43h3.57l2.33999996 9.36 2.66-9.37h3.43l2.91 9.37 2-9.34h3.63l-3.92 13.43h-3.36l-3-9.4-2.9 9.4zm27.32-.07v-8.15c0-2-.78-2.64-2.23-2.64-1.1381702.01591934-2.2280191.4625787-3.05 1.25v9.54h-3.42v-19.37l3.42-.47v8.15c1.1453367-1.31139384 2.7893077-2.08075776 4.53-2.12 2.58 0 4.17 1.75 4.17 4.62v9.19zm9.59-5.93c.0157853.9866467.422934 1.9265971 1.1318498 2.6130076.7089158.6864106 1.6615076 1.0630344 2.6481502 1.0469924h.22c1.4782694-.0195323 2.9233088-.4412902 4.18-1.22l.43 2.85c-1.5026348.7470913-3.1620639 1.1242342-4.84 1.1-4.29 0-7.14-2.73-7.14-7s2.9-7.26 6.91-7.26c3.54 0 5.51 2.15 5.51 5.43-.0015578.7526335-.0990092 1.5020013-.29 2.23l-8.76.15zm5.83-2.12v-.23c0-1.8-.78-2.93-2.55-2.93-1.7397411.05212277-3.1378772 1.4502589-3.19 3.19zm9.46 8.05h-3.42v-13.28l3.42-.5v2.18c.6403427-1.3429473 1.9922254-2.20147047 3.48-2.21.8331582-.00938247 1.6540695.20101915 2.38.61l-.75 3.08c-.5869801-.3298592-1.2467825-.5085557-1.92-.52-1.19 0-2.29.75-3.19 2.37zm10.32-5.93c.0209919.9919841.4353047 1.9349726 1.151744 2.6214039.7164392.6864313 1.6762817 1.0600418 2.668256 1.0385961h.18c1.475165-.0193273 2.9170394-.4411707 4.17-1.22l.44 2.85c-1.5065605.7460886-3.1689771 1.1231315-4.85 1.1-4.29 0-7.13-2.73-7.13-7s2.9-7.26 6.9-7.26c3.54 0 5.51 2.15 5.51 5.43-.0015578.7526335-.0990092 1.5020013-.29 2.23l-8.76.12zm5.83-2.12v-.23c0-1.8-.78-2.93-2.55-2.93-1.7376234.05701676-3.1329832 1.4523766-3.19 3.19zm6.0099448 1.48c-.0153384-5.89177865 3.1868101-11.32200904 8.3500552-14.16l1.68 2.26c-4.2524437 2.45145598-6.8727502 6.98654669-6.8727502 11.895 0 4.9084533 2.6203065 9.443544 6.8727502 11.895l-1.65 2.26c-5.1732501-2.8267463-8.3879072-8.2548368-8.3800552-14.15z" fill="#000"/><path d="m93.8400914 26.05c4.2578236-2.4473824 6.8827946-6.9839164 6.8827946-11.895 0-4.91108355-2.624971-9.44761764-6.8827946-11.895l1.72-2.26c5.1421746 2.85471452 8.3317516 8.27355885 8.3317516 14.155 0 5.8814411-3.189577 11.3002855-8.3317516 14.155z" fill="#000"/><path d="m120.990091.38h2.93v26.13h-2.93z" fill="#fff"/><path d="m141.430091 11.73-1.88-2.49 4.2-1.71v-.21l-4.14-1.74 1.82-2.52 2.9 3.51.18-.06.43-4.5 2.93 1-2.46 3.86.11.14 4.33-1v3.08l-4.33-1.08-.11.15 2.38 3.88-2.93.9-.35-4.52h-.18z" fill="#000"/></g><g transform="translate(319.4699 1160.14)"><path d="m2.32009144 12.24c-1.24264069 0-2.25-1.0073593-2.25-2.25 0-1.24264069 1.00735931-2.25 2.25-2.25 1.24264068 0 2.25 1.00735931 2.25 2.25 0 1.2426407-1.00735932 2.25-2.25 2.25zm0 8.56c-.5915609.0243572-1.16852597-.1875307-1.60371907-.5889588s-.69288729-.9594414-.71628093-1.5510412v-.13c-.0053284-.5861356.2224153-1.1503787.63312513-1.5685901.41070982-.4182114.97073885-.6561295 1.55687487-.6614099h.13c.57565089-.0243709 1.13736212.1811907 1.56130617.5713693.42394404.3901785.67531317.9329387.69869383 1.5086307v.15c.03943368 1.2077314-.90261034 2.2212101-2.11 2.27zm12.55999996-14.25c3.54 0 5.86 2.88 5.86 7 .0867315 1.8607187-.5825386 3.6774573-1.8556651 5.0372166-1.2731264 1.3597594-3.0419394 2.147009-4.9043349 2.1827834-.959624.0043342-1.9152717-.1235342-2.84-.38v6.35h-3.42999996v-19.69l3.42999996-.47v1.69c.9666973-1.05012484 2.3135641-1.66953949 3.74-1.72zm-3.74 10.74c.7352184.5191854 1.620538.7826733 2.52.75 2.29 0 3.6-1.86 3.6-4.35s-1.25-4.26-3.37-4.26c-1.0236496.00127924-2.0078542.39496106-2.75 1.1zm16.61 3.57c-1.8157522-.0158181-3.6029016-.4540463-5.22-1.28l.76-2.67c1.3812771.7812332 2.9335911 1.2105236 4.52 1.25 1.34 0 2.21-.55 2.21-1.48s-1.14-1.42-2.7-1.8c-2.52-.58-4.53-1.63-4.53-4.15s2.12-4.18 5.34-4.18c1.6814722.01129019 3.3413925.37940393 4.87 1.08l-.75 2.67c-1.3080969-.66605004-2.7435578-1.04452072-4.21-1.11-1.24 0-2 .47-2 1.34s1.13 1.36 2.7 1.74c2.55.61 4.55 1.59 4.55 4.21s-2.11 4.38-5.54 4.38zm10.94-6.44c.0157853.9866467.422934 1.9265971 1.1318498 2.6130076.7089158.6864106 1.6615076 1.0630344 2.6481502 1.0469924h.22c1.4782694-.0195323 2.9233088-.4412902 4.18-1.22l.43 2.85c-1.5026348.7470913-3.1620639 1.1242342-4.84 1.1-4.3 0-7.14-2.73-7.14-7s2.9-7.26 6.91-7.26c3.53 0 5.51 2.15 5.51 5.43-.0015578.7526335-.0990092 1.5020013-.29 2.23l-8.76.12zm5.83-2.12v-.23c0-1.8-.79-2.93-2.56-2.93-1.7376234.05701676-3.1329832 1.4523766-3.19 3.19zm9.36-5.31v8.15c0 2 .81 2.61 2.27 2.61 1.0871317-.0078479 2.1321128-.4215606 2.93-1.16v-9.6h3.45v13.29l-3.42.46v-2c-1.1360475 1.2397546-2.728881 1.962128-4.41 2-2.61 0-4.21-1.74-4.21-4.62v-9.19zm21.09-6 3.42-.47v19.84h-3.42v-1.3c-.9725309 1.0620282-2.3308633 1.6889508-3.77 1.74-3.54 0-5.83-2.87-5.83-7-.0894878-1.8607066.5771859-3.6785399 1.8484487-5.04020353 1.2712628-1.36166368 3.0390888-2.15145022 4.9015513-2.18979647.9660995.01027683 1.9257831.15843851 2.85.44zm-2.53 8.29c-2.29 0-3.59 1.89-3.59 4.35 0 2.61 1.3 4.27 3.36 4.27 1.0305219.0091933 2.0227922-.3898719 2.76-1.11v-6.73c-.7362165-.52791845-1.6243285-.80172372-2.53-.78zm15.58 11.52c-3.92 0-6.76-2.67-6.76-7.11s3-7.16 6.93-7.16 6.76 2.72 6.76 7.13c.2279618 3.7081671-2.5919818 6.8996272-6.3 7.13-.21.01-.42.07-.63.01zm.05-11.52c-2.23 0-3.45 1.8-3.45 4.38s1.28 4.35 3.51 4.35 3.42-1.74 3.42-4.32-1.27-4.41-3.48-4.41z" fill="#000"/><path d="m111.330091 0h2.93v26.13h-2.93z" fill="#fff"/><path d="m133.250091 20.8c-.59156.0243572-1.168526-.1875307-1.603719-.5889588s-.692887-.9594414-.716281-1.5510412v-.13c-.005328-.5861356.222416-1.1503787.633126-1.5685901.410709-.4182114.970738-.6561295 1.556874-.6614099h.13c.578331-.0271387 1.143703.1768922 1.571424.5670938s.682655.93452.708576 1.5129062v.17c.013413.583519-.205604 1.148452-.608839 1.5704422-.403235.4219903-.957635.6664466-1.541161.6795578zm11.55 0c-4.35 0-6.94-2.7-6.94-7.08s2.85-7.17 7.05-7.17c1.614388-.04137764 3.210169.35238659 4.62 1.14l-.73 2.75c-1.085963-.68947622-2.343688-1.06021046-3.63-1.07-2.46 0-3.8 1.68-3.8 4.26 0 2.73 1.54 4.32 3.8 4.32 1.309991.0282397 2.600737-.3187349 3.72-1l.55 2.79c-1.429494.7472381-3.027835 1.1123763-4.64 1.06zm7.48-.44v-19.37l3.42-.47v19.84zm14.09-1.5c-.867414 1.227914-2.266902 1.970348-3.77 2-2.137229.1487809-3.990566-1.4628161-4.14-3.6-.004825-.0565639-.004825-.1134361 0-.17 0-2.47 1.8-4.56 7.92-4.76v-.32c0-1.8-.75-2.55-2.67-2.55-1.570065.10658986-3.090546.5939676-4.43 1.42l-.7-2.7c1.694907-1.00952379 3.627313-1.55128761 5.6-1.57 4.12 0 5.71 1.83 5.63 5.52v4.73c0 1 .17 1.16 1.18 1.22l-.26 2.58c-2.55.29-3.74-.49-4.23-1.83zm0-4.75c-3.33.4-4.55 1.07-4.55 2.49.005224.4729686.199534.9241708.539582 1.2529468.340049.328776.797542.5077712 1.270418.4970532h.19c.977204-.0022474 1.906197-.4248479 2.55-1.16zm11.08 6.75c-1.803167-.0115091-3.579317-.439291-5.19-1.25l.75-2.67c1.385502.7797717 2.940671 1.2089022 4.53 1.25 1.33 0 2.2-.55 2.2-1.48s-1.13-1.42-2.7-1.8c-2.52-.58-4.52-1.63-4.52-4.15s2.12-4.18 5.34-4.18c1.681473.01129019 3.341393.37940393 4.87 1.08l-.76 2.67c-1.304611-.66583509-2.736772-1.0443348-4.2-1.11-1.25 0-2 .47-2 1.34s1.13 1.36 2.69 1.74c2.56.61 4.56 1.59 4.56 4.21s-2.15 4.35-5.57 4.35zm12.5 0c-1.803167-.0115091-3.579317-.439291-5.19-1.25l.75-2.67c1.385502.7797717 2.940671 1.2089022 4.53 1.25 1.33 0 2.2-.55 2.2-1.48s-1.13-1.42-2.7-1.8c-2.52-.58-4.52-1.63-4.52-4.15s2.11-4.18 5.33-4.18c1.684814.01017952 3.348226.37831177 4.88 1.08l-.76 2.67c-1.304611-.66583509-2.736772-1.0443348-4.2-1.11-1.25 0-2 .47-2 1.34s1.13 1.36 2.69 1.74c2.56.61 4.56 1.59 4.56 4.21s-2.15 4.35-5.57 4.35z" fill="#000"/><path d="m211.810091 0h2.93v26.13h-2.93z" fill="#fff"/><path d="m232.260091 26.55v-26h8.93v2.58h-5.89v20.83h5.89v2.59zm17.98-7.69c-.867414 1.227914-2.266902 1.970348-3.77 2-2.137229.1487809-3.990566-1.4628161-4.14-3.6-.004825-.0565639-.004825-.1134361 0-.17 0-2.47 1.8-4.56 7.92-4.76v-.32c0-1.8-.75-2.55-2.67-2.55-1.573272.10618124-3.097091.5935288-4.44 1.42l-.69-2.7c1.691412-1.009151 3.620509-1.55095448 5.59-1.57 4.12 0 5.72 1.83 5.63 5.52v4.73c0 1 .18 1.16 1.19 1.22l-.26 2.58c-2.55.29-3.74-.49-4.23-1.83zm0-4.75c-3.34.4-4.55 1.07-4.55 2.49.005224.4729686.199534.9241708.539582 1.2529468.340049.328776.797542.5077712 1.270418.4970532h.19c.977204-.0022474 1.906197-.4248479 2.55-1.16zm11.66 6.69c-3 0-4.56-1.31-4.44-4.53l.2-6.29-2.09-.23.09-2.18 2.09-.67.06-3h3.3l-.05 3.14h3.77l-.09 2.81h-3.89l-.17 6.18c-.07234.4126749.023264.8371453.265539 1.1789591.242274.3418138.61112.5726131 1.024461.6410409.15903.0249245.320971.0249245.48 0 .713878-.0260391 1.419194-.1644026 2.09-.41l.46 2.79c-.99358.3642464-2.041837.5569904-3.1.57zm10.38 0c-3 0-4.56-1.31-4.44-4.53l.2-6.29-2.09-.23.09-2.18 2.09-.67.06-3h3.34v3.14h3.77l-.09 2.81h-3.98l-.17 6.18c-.07234.4126749.023264.8371453.265539 1.1789591.242274.3418138.61112.5726131 1.024461.6410409.15903.0249245.320971.0249245.48 0 .713878-.0260391 1.419194-.1644026 2.09-.41l.46 2.79c-.99358.3642464-2.041837.5569904-3.1.57zm9.07-.44h-3.42v-13.28l3.42-.5v2.18c.640343-1.3429473 1.992226-2.20147047 3.48-2.21.833273-.01033149 1.654426.20013231 2.38.61l-.75 3.08c-.58698-.3298592-1.246782-.50855567-1.92-.52-1.18 0-2.29.75-3.19 2.37zm6.35 3.6h5.89v-20.83h-5.89v-2.58h8.91v26h-8.91z" fill="#000"/></g><g transform="translate(350.22 1200.44)"><path d="m2.40001138 12.24c-.80206125.0535898-1.57178625-.3247857-2.01922704-.9925962-.44744078-.6678105-.50462046-1.52359965-.15-2.24499999.35462047-.72140034 1.06716579-1.19881397 1.86922704-1.25240381h.3c.80206124-.05358984 1.57178624.32478569 2.01922703.99259619.44744078.6678105.50462046 1.52359971.15 2.24500001-.35462047.7214003-1.06716579 1.198814-1.86922703 1.2524038zm0 8.56c-.58893667.0271274-1.16447664-.1811219-1.59969647-.5788227-.43521983-.3977009-.69437116-.9521868-.72030353-1.5411773v-.12c-.01070609-.580852.20981909-1.1421571.61304292-1.5603846.40322384-.4182275.9561015-.6591031 1.53695708-.6696154h.17c.57565089-.0243709 1.13736212.1811907 1.56130617.5713693.42394404.3901785.67531317.9329387.69869383 1.5086307v.15c.01886481.5809055-.19396109 1.145485-.5916005 1.5693836s-.94747498.6723451-1.5283995.6906164zm7.22-8.56c-.80206125.0535898-1.57178625-.3247857-2.01922704-.9925962-.44744078-.6678105-.50462046-1.52359965-.15-2.24499999.35462047-.72140034 1.06716579-1.19881397 1.86922704-1.25240381h.3c.80206122-.05358984 1.57178622.32478569 2.01922702.99259619s.5046205 1.52359971.15 2.24500001-1.0671658 1.198814-1.86922702 1.2524038zm0 8.56c-.58893667.0271274-1.16447664-.1811219-1.59969647-.5788227-.43521983-.3977009-.69437116-.9521868-.72030353-1.5411773v-.12c-.01070609-.580852.20981909-1.1421571.61304292-1.5603846.40322384-.4182275.9561015-.6591031 1.53695708-.6696154h.17c.57565092-.0243709 1.13736212.1811907 1.56130612.5713693.4239441.3901785.6753132.9329387.6986939 1.5086307v.15c.0188648.5809055-.1939611 1.145485-.5916005 1.5693836s-.947475.6723451-1.52839952.6906164zm12.56000002-14.24c3.54 0 5.86 2.87 5.86 7 .0867314 1.8607187-.5825386 3.6774573-1.8556651 5.0372166-1.2731265 1.3597594-3.0419395 2.147009-4.9043349 2.1827834-.9624146.0069937-1.9212754-.11749-2.85-.37v6.35h-3.42v-19.7l3.42-.46v1.68c.9704449-1.05070577 2.3205796-1.66996756 3.75-1.72zm-3.75 10.73c.7329311.5325365 1.6249343.8004901 2.53.76 2.29 0 3.6-1.86 3.6-4.35s-1.25-4.27000313-3.37-4.27000313c-1.0271062-.00128107-2.0153482.39258349-2.76 1.10000313zm16.62 3.54c-1.8043694-.0015406-3.5827864-.4298684-5.19-1.25l.75-2.67c1.3848766.7812867 2.9404297 1.2105232 4.53 1.25 1.33 0 2.2-.55 2.2-1.48s-1.13-1.42-2.69-1.8c-2.53-.58-4.53-1.62-4.53-4.14s2.12-4.18 5.34-4.18c1.6813245.00291233 3.3423066.3678509 4.87 1.07l-.75 2.67c-1.3087662-.66287107-2.7442527-1.03793879-4.21-1.1-1.25 0-2 .46-2 1.33s1.13 1.37 2.7 1.74c2.55.61 4.55 1.6 4.55 4.21s-2.14 4.35-5.57 4.35zm10.93-6.41c.0183924.9919662.4301778 1.9359768 1.1447298 2.6242723s1.6733105 1.0644676 2.6652702 1.0457277h.19c1.4735223-.0301452 2.9125923-.4511681 4.17-1.22l.44 2.84c-1.5045907.7516169-3.1683693 1.1289687-4.85 1.1-4.29 0-7.13-2.72-7.13-7s2.9-7.25 6.9-7.25c3.54 0 5.51 2.15 5.51 5.42-.0009254.7559668-.0983802 1.5087213-.29 2.24l-8.76.11zm5.83-2.12v-.23c0-1.8-.78-2.93-2.55-2.93-1.7376234.05701676-3.1329833 1.4523766-3.19 3.19zm9.37-5.31v8.16c0 2 .81 2.61 2.26 2.61 1.0871316-.0078479 2.1321127-.4215606 2.93-1.16v-9.61h3.41v13.29l-3.43.46v-2c-1.1332371 1.2436246-2.7278212 1.966792-4.41 2-2.61 0-4.2-1.74-4.2-4.61v-9.2zm21.08-6 3.43-.46v19.84h-3.43v-1.31c-.972531 1.0620282-2.3308633 1.6889508-3.77 1.74-3.54 0-5.83-2.87-5.83-7-.0867315-1.8607187.5825386-3.6774573 1.8556651-5.03721662 1.2731265-1.35975935 3.0419394-2.14700893 4.9043349-2.18278338.9622855.00771046 1.9185631.15249897 2.84.43zm-2.52 8.3c-2.29 0-3.6 1.88-3.6 4.35s1.31 4.26 3.37 4.26c1.0275052.019223 2.0192017-.3774556 2.75-1.1v-6.73c-.72179-.51890529-1.5911291-.79232647-2.48-.78zm15.57 11.51c-3.91 0-6.75-2.67-6.75-7.1s3-7.17 6.93-7.17 6.7599996 2.73 6.7599996 7.14c.227973 3.7026481-2.5874994 6.8896375-6.2899996 7.12-.18.01-.43.02-.65.01zm.06-11.51c-2.23 0-3.45 1.79-3.45 4.38s1.28 4.35 3.51 4.35 3.42-1.74 3.42-4.32-1.27-4.41-3.48-4.41z" fill="#000"/><path d="m118.630011 0h2.93v26.14h-2.93z" fill="#fff"/><path d="m141.310011 14.42c.013172.9866339.41779 1.9276147 1.124821 2.6158923.707032.6882776 1.658548 1.067458 2.645179 1.0541077h.23c1.476859-.0288586 2.919482-.4499114 4.18-1.22l.43 2.84c-1.501044.7515431-3.161574 1.1289362-4.84 1.1-4.3 0-7.14-2.72-7.14-7s2.9-7.25 6.9-7.25c3.54 0 5.52 2.15 5.52 5.42-.000925.7559668-.09838 1.5087213-.29 2.24l-8.76.11zm5.83-2.12v-.23c0-1.8-.79-2.93-2.56-2.93-1.737623.05701676-3.132983 1.4523766-3.19 3.19zm6.06 8.07v-19.38l3.42-.46v19.84zm9.65-5.95c.018393.9919662.430178 1.9359768 1.14473 2.6242723s1.673311 1.0644676 2.66527 1.0457277h.19c1.473523-.0301452 2.912593-.4511681 4.17-1.22l.44 2.84c-1.50459.7516169-3.168369 1.1289687-4.85 1.1-4.29 0-7.13-2.72-7.13-7s2.9-7.25 6.9-7.25c3.54 0 5.51 2.15 5.51 5.42-.000925.7559668-.09838 1.5087213-.29 2.24l-8.76.11zm5.83-2.12v-.23c0-1.8-.78-2.93-2.55-2.93-1.739741.05212277-3.137877 1.4502589-3.19 3.19zm22.86 8.07v-8.13c0-2-.79-2.66-2.21-2.66-1.042064.03868633-2.032689.4627309-2.78 1.19v9.6h-3.43v-8.13c0-2-.75-2.66-2.17-2.66-1.037463-.00903789-2.03785.38538-2.79 1.1v9.69h-3.38v-13.32l3.42-.46v1.97c1.097944-1.19978408 2.643774-1.89124432 4.27-1.91 1.574455-.06980471 3.0278.84202004 3.65 2.29 1.182969-1.41304372 2.917635-2.24757842 4.76-2.29 2.52 0 4.12 1.74 4.12 4.64v9.17zm9.53-5.95c.015742.9928307.4267 1.9384075 1.141842 2.627271.715141.6888636 1.675434 1.0641504 2.668158 1.042729h.19c1.473523-.0301452 2.912593-.4511681 4.17-1.22l.44 2.84c-1.50459.7516169-3.168369 1.1289687-4.85 1.1-4.29 0-7.13-2.72-7.13-7s2.9-7.25 6.9-7.25c3.54 0 5.51 2.15 5.51 5.42-.000925.7559668-.09838 1.5087213-.29 2.24l-8.76.11zm5.83-2.12v-.23c0-1.8-.78-2.93-2.55-2.93-1.737623.05701676-3.132983 1.4523766-3.19 3.19zm14.76 8.07v-8.15c0-2-.78-2.64-2.32-2.64-1.10266.03513325-2.153378.4767911-2.95 1.24v9.55h-3.43v-13.32l3.43-.46v2.12c1.099652-1.29728584 2.690942-2.07661909 4.39-2.15 2.7 0 4.3 1.74 4.3 4.61v9.2zm11.72.43c-3 0-4.55-1.3-4.44-4.52l.2-6.3-2.08-.23.08-2.18 2.09-.66.06-3h3.31l-.06 3.13h3.77l-.09 2.81h-3.89l-.17 6.18c-.07234.4126749.023264.8371453.265539 1.1789591.242274.3418138.61112.5726131 1.024461.6410409.15903.0249245.320971.0249245.48 0 .71336-.0226613 1.418686-.1576519 2.09-.4l.46 2.78c-.990959.3737557-2.040904.56681-3.1.57z" fill="#000"/></g><g fill="#000"><path d="m.54 8.24v-2.47h4l1.53-5.77h2.53l-1.57 5.77h4.46l1.57-5.77h2.52l-1.57 5.77h2.24v2.47h-2.9l-1.05 3.88h3.37v2.47h-4l-1.65 6.18h-2.53l1.65-6.18h-4.38l-1.65 6.18h-2.53l1.66-6.18h-2.24v-2.47h2.87l1.08-3.88zm5.89-.09-1.1 4.06h4.38l1.13-4.06zm12.33 10.47v-18.13h3.51v18.13zm13.66 0h-5.93v-18.13h6.15c6.18 0 9.770021 3.54 9.770021 8.94.009979 5.59-3.550021 9.19-9.990021 9.19zm0-15.14h-2.41v12.15h2.58c3.83 0 6.26-2 6.26-6s-2.26-6.15-6.36-6.15z" transform="translate(446.51 1126.04)"/><path d="m17.28 26.57c0-2.14-2.3-2.85-6.53-4-4.64-1.27-10.25-3.41-10.25-9.79 0-5.91 4.33-9.84 12.24-9.84 4.1520018-.10345935 8.2606593.86429652 11.93 2.81l-1.58 6.68c-3.1742663-1.7095155-6.6973625-2.67067084-10.3-2.81-2.81 0-4.18 1-4.18 2.7 0 2.1 2.91 2.91 6.73 4 4.89 1.33 10 3.57 10 9.64s-4.69 10.35-13.05 10.35c-4.27156387.0473559-8.49019151-.9480891-12.29-2.9l1.53-6.74c3.33928495 1.8706448 7.08374946 2.9002867 10.91 3 2.85-.09 4.84-1.16 4.84-3.1zm19.23-1.07c.25 3.16 2.44 5 6.27 5 2.7362239-.0907163 5.4039065-.8789735 7.75-2.29l.76 6.06c-2.8914195 1.3331758-6.0465284 1.9963298-9.23 1.94-8.05 0-13.25-4.49-13.25-12.39s5.3-12.8 12.85-12.8c6.73 0 10.4000014 4 10.4000014 9.94.00056 1.4121816-.1706983 2.8191861-.5100014 4.19l-15 .25zm8.26-4.08v-.46c0-2.8-1.18-4.54-3.62-4.54-2.71 0-4.34 2.35-4.59 5zm11.73 14.08v-33.71l7.85-1v34.68zm19.89-10c.25 3.16 2.44 5 6.27 5 2.7362239-.0907163 5.4039065-.8789735 7.75-2.29l.77 6.06c-2.8929315 1.3286012-6.046986 1.9915336-9.23 1.94-8.06 0-13.26-4.49-13.26-12.39s5.3-12.8 12.85-12.8c6.73 0 10.4000014 4 10.4000014 9.94.00056 1.4121816-.1706983 2.8191861-.5100014 4.19l-15 .25zm8.26-4.08v-.46c0-2.8-1.17-4.54-3.62-4.54-2.71 0-4.34 2.35-4.59 5zm23.36 14.84c-7.86 0-12.86-4.38-12.86-12.44 0-7.85 5.1-12.8 13.06-12.8 2.994202-.0534683 5.955246.6335488 8.62 2l-1.53 5.91c-1.906067-1.120139-4.060647-1.7489878-6.27-1.83-3.78 0-5.87 2.65-5.87 6.47 0 4.24 2.4 6.58 6.07 6.58 2.215963.0092574 4.389449-.6077771 6.27-1.78l1.17 6c-2.684986 1.3392051-5.661189 1.9887461-8.66 1.89zm22.59 0c-5.87 0-9-2.39-8.72-8.62l.35-9-3.56-.61.15-5 3.57-1.17.1-5.41h7.6l-.05 5.66h5.91l-.15 6.17h-6.32l-.26 8.52c-.1 2.19 1.18 3.11 3.11 3.11 1.061854-.0423097 2.110839-.2480592 3.11-.61l.92 6.12c-1.861186.5929278-3.806995.8766915-5.76.84zm20.76 0c-7.14 0-12.6-4.49-12.6-12.54s5.71-12.7 12.9-12.7 12.55 4.59 12.55 12.54-5.77 12.7-12.85 12.7zm.1-19.27c-3.22 0-4.9 2.6-4.9 6.68s1.74 6.58 4.95 6.58 4.89-2.55 4.89-6.63-1.73-6.63-4.94-6.63zm24.94 18.51h-7.86v-23.32l7.86-1v3.47c1.37-2.4 3.21-3.67 5.71-3.67 1.367392.0184125 2.710885.3611403 3.92 1l-1.58 6.93c-.914206-.4643048-1.924649-.7074961-2.95-.71-1.94 0-3.68 1-5.1 3.47zm40.18-8.93c0-2.14-2.29-2.85-6.52-4-4.65-1.27-10.25-3.41-10.25-9.79 0-5.91 4.33-9.84 12.23-9.84 4.155323-.10473372 8.267528.86304661 11.94 2.81l-1.58 6.68c-3.174266-1.7095155-6.697362-2.67067084-10.3-2.81-2.81 0-4.19 1-4.19 2.7 0 2.1 2.91 2.91 6.74 4 4.89 1.33 10 3.57 10 9.64s-4.69 10.35-13.05 10.35c-4.272101.0522211-8.491886-.9434969-12.29-2.9l1.53-6.74c3.339285 1.8706448 7.083749 2.9002867 10.91 3 2.84-.09 4.83-1.16 4.83-3.1zm27.29-15.55c5.86 0 10.15 4.79 10.15 12.34 0 7.85-5.46 12.85-11.89 12.85-1.657625-.0221666-3.303839-.2780199-4.89-.76v10.6h-7.85v-33.87l7.85-1v3c1.67549-1.9280554 4.077149-3.0727371 6.63-3.16zm-6.63 18.36c1.082229.6817127 2.341298 1.0295217 3.62 1 3.37 0 5.3-2.65 5.3-6.58s-1.73-6.48-4.94-6.48c-1.497872-.0145493-2.938916.572676-4 1.63zm27.64-3.88c.26 3.16 2.45 5 6.27 5 2.736224-.0907163 5.403907-.8789735 7.75-2.29l.77 6.06c-2.891419 1.3331758-6.046528 1.9963298-9.23 1.94-8.06 0-13.26-4.49-13.26-12.39s5.3-12.8 12.85-12.8c6.73 0 10.400001 4 10.400001 9.94.00056 1.4121816-.170698 2.8191861-.510001 4.19l-15 .25zm8.26-4.08v-.46c0-2.8-1.17-4.54-3.62-4.54-2.7 0-4.33 2.35-4.59 5zm23.36 14.84c-7.85 0-12.85-4.38-12.85-12.44 0-7.85 5.1-12.8 13-12.8 2.994728-.0584733 5.956978.6288237 8.62 2l-1.53 5.91c-1.906067-1.120139-4.060647-1.7489878-6.27-1.83-3.77 0-5.87 2.65-5.87 6.47 0 4.24 2.4 6.58 6.07 6.58 2.219062.0089708 4.395681-.6079691 6.28-1.78l1.17 6c-2.665304 1.354336-5.632549 2.004927-8.62 1.89zm16.98-27.84c-2.85 0-4.64-1.48-4.64-4.18s1.79-4.24 4.64-4.24 4.64 1.48 4.64 4.24-1.73 4.18-4.64 4.18zm-3.92 27.08v-23.32l7.85-1v24.28zm28.21-28c-1.003167-.4804601-2.097898-.73964883-3.21-.76-2 0-2.76 1.17-2.76 3.46v1.89h6.27l-.15 6.17h-5.76v17.24h-7.85v-17.19l-4.08-.3.2-5 3.82-1.12.06-2c.2-6.89 3.31-9.85 9.23-9.85 1.892383.02608241 3.767522.3639454 5.55 1 0 0-1.32 6.51-1.32 6.46zm7 1.58c-2.85 0-4.64-1.48-4.64-4.23s1.79-4.23 4.64-4.23 4.65 1.53 4.65 4.23-1.77 4.23-4.65 4.23zm-3.92 26.42v-23.32l7.85-1v24.28zm24.92.76c-7.86 0-12.86-4.38-12.86-12.44 0-7.85 5.1-12.8 13.06-12.8 2.994202-.0534683 5.955246.6335488 8.62 2l-1.53 5.91c-1.909689-1.1201792-4.067502-1.7489689-6.28-1.83-3.77 0-5.86 2.65-5.86 6.47 0 4.24 2.4 6.58 6.07 6.58 2.215963.0092574 4.389449-.6077771 6.27-1.78l1.17 6c-2.685826 1.3368177-5.66142 1.9862255-8.66 1.89zm17-27.84c-2.86 0-4.64-1.48-4.64-4.18s1.78-4.24 4.64-4.24 4.64 1.48 4.64 4.24-1.76 4.18-4.64 4.18zm-4 27.08v-23.32l7.86-1v24.28zm23 .76c-5.86 0-9-2.39-8.72-8.62l.36-9-3.57-.61.15-5 3.57-1.17.1-5.41h7.6v5.66h5.92l-.16 6.17h-6.32l-.25 8.52c-.11 2.19 1.17 3.11 3.11 3.11 1.061854-.0423097 2.110839-.2480592 3.11-.61l.91 6.12c-1.877243.5978265-3.840303.8816424-5.81.84zm24.47-1.88-1.17 3.11c-2.45 6.93-5.41 9.0001974-10.4 9.0001974-2.417549.0116611-4.807856-.5107917-7-1.5301974l2.34-6c1.135622.6167302 2.39074.9816696 3.68 1.07 1.68 0 2.44-.62 3.36-2.91l.66-1.84-9.28-23.55h8.34l5 15.6 4.58-15.6h8.42z" transform="translate(251.23 1059.82)"/><path d="m11.66 19.9-11.66-5.4v-2.29l11.63-5.39v2.93l-7.86 3.48v.29l7.89 3.45zm10.87-16.36c-.6273392-.29501686-1.3073358-.46161603-2-.49-1.25 0-1.77.72-1.77 2.37v1.48h3.89l-.09 2.82h-3.71v10.47h-3.39v-10.44l-2.32-.18.12-2.17 2.18-.64v-1.42c.09-3.83 1.83-5.34 4.85-5.34.9925956.02719238 1.9732993.22333313 2.9.58.01.06-.66 2.99-.66 2.96zm3.69 1c-1.1294223 0-2.045-.91557769-2.045-2.045s.9155777-2.045 2.045-2.045 2.045.91557769 2.045 2.045-.9155777 2.045-2.045 2.045zm-1.76 15.65v-13.29l3.43-.49v13.78zm10.45 0h-3.45v-13.29l3.42-.49v2.18c.6346599-1.34796922 1.9900964-2.20874929 3.48-2.21.8337329-.01421531 1.6558901.19650566 2.38.61l-.75 3.08c-.5850725-.33573422-1.2455487-.51805318-1.92-.53-1.18 0-2.29.76-3.19 2.38zm12.15.46c-1.8025055-.0073217-3.578858-.4317296-5.19-1.24l.76-2.67c1.3825285.7782039 2.9340739 1.2072818 4.52 1.25 1.34 0 2.21-.56 2.21-1.48s-1.14-1.43-2.7-1.8c-2.53-.58-4.53-1.63-4.53-4.15s2.12-4.18 5.34-4.18c1.6806798.00875623 3.3404422.37342682 4.87 1.07l-.75 2.67c-1.3108137-.65745121-2.745118-1.03221004-4.21-1.1-1.24 0-2 .47-2 1.34s1.13 1.36 2.7 1.74c2.55.61 4.55 1.59 4.55 4.2s-2.17 4.35-5.57 4.35zm13.08-.03c-3 0-4.55-1.3-4.43-4.52l.2-6.3-2.09-.23.09-2.17 2.09-.67v-3h3.31l-.06 3.13h3.77l-.08 2.82h-3.89l-.17 6.18c-.0850279.4948473.071755 1.0005135.421814 1.3604611.3500589.3599477.8511626.5307525 1.348186.4595389.7102321-.0215216 1.4124441-.1565624 2.08-.4l.47 2.78c-.980085.3616926-2.0153422.5511515-3.06.56zm4.96-.72v-2.93l7.86-3.45v-.29l-7.86-3.48v-2.93l11.63 5.39v2.29z" transform="translate(429.54 1002.93)"/><path d="m11.66 19.55-11.66-5.38v-2.3l11.63-5.39v2.93l-7.86 3.48v.28l7.89 3.45zm3.19.29v-19.38l3.42-.46v19.84zm14.09-1.54c-.8652194 1.2304053-2.2660709 1.9735626-3.77 2-1.0561372.0712253-2.0955236-.2921444-2.8772373-1.005883-.7817136-.7137385-1.2378798-1.7158733-1.2627627-2.774117 0-2.46 1.79-4.55 7.91-4.75v-.32c0-1.8-.75-2.55-2.66-2.55-1.5734235.10538649-3.0974289.59279362-4.44 1.42l-.7-2.7c1.6952859-1.0086392 3.6274482-1.55033473 5.6-1.57 4.12 0 5.71 1.83 5.63 5.52v4.78c0 1 .17 1.16 1.19 1.22l-.26 2.58c-2.56.29-3.75-.49-4.24-1.83zm0-4.75c-3.33.4-4.55 1.07-4.55 2.49.0074823.5058112.2298272.9845474.6114747 1.3165808.3816476.3320333.8865443.4859974 1.3885253.4234192.9772036-.0022474 1.9061961-.4248479 2.55-1.16zm11.08 6.75c-1.8026358-.006233-3.5792339-.4306996-5.19-1.24l.75-2.67c1.3865802.7771511 2.9410881 1.2060992 4.53 1.25 1.33 0 2.2-.55 2.2-1.48s-1.13-1.42-2.7-1.8c-2.52-.58-4.52-1.63-4.52-4.15s2.12-4.18 5.34-4.18c1.6818168.0082261 3.3423754.37648139 4.87 1.08l-.75 2.67c-1.3085376-.66489399-2.7437444-1.04329769-4.21-1.11-1.25 0-2 .47-2 1.34s1.13 1.36 2.7 1.74c2.55.61 4.55 1.59 4.55 4.2s-2.15 4.35-5.57 4.35zm13.08-.02c-3 0-4.55-1.31-4.44-4.53l.2-6.29-2.08-.24.08-2.17 2.09-.67.06-3h3.31l-.06 3.14h3.77l-.09 2.85h-3.88l-.18 6.18c-.0840839.4955304.0726122 1.0015045.4220418 1.3627792.3494297.3612747.849901.5347449 1.3479582.4672208.7139934-.0250341 1.4194661-.1634283 2.09-.41l.46 2.78c-.9942177.3572419-2.043569.5366471-3.1.53zm4.96-.73v-2.93l7.88-3.45v-.29l-7.86-3.48v-2.93l11.63 5.39v2.31z" transform="translate(433.06 962.83)"/><g transform="translate(403.97 922.48)"><path d="m3.4 6.52v8.15c0 2 .81 2.61 2.26 2.61 1.08713162-.0078479 2.13211277-.4215606 2.93-1.16v-9.6h3.44v13.28l-3.42.47v-2c-1.13323707 1.2436246-2.72782113 1.966792-4.41 2-2.61 0-4.2-1.74-4.2-4.61v-9.14zm20.97 13.32v-8.15c0-2-.79-2.64-2.32-2.64-1.1216236.02451882-2.1928079.47084563-3 1.25v9.54h-3.43v-13.32l3.43-.46v2.12c1.1050759-1.30129921 2.7041867-2.08091101 4.41-2.15 2.69 0 4.29 1.74 4.29 4.61v9.2zm6.03-5.57v-2.93h8.18v2.93zm10.84 5.57v-19.38l3.42-.46v19.84zm14.1-1.54c-.8674145 1.227914-2.2669027 1.970348-3.77 2-1.0561107.0740278-2.0966065-.2867185-2.8802388-.9985965s-1.2423378-1.7130568-1.2697612-2.7714035c0-2.46 1.8-4.55 7.92-4.75v-.32c0-1.8-.76-2.56-2.67-2.56-1.5750583.10438618-3.1000745.59555129-4.44 1.43l-.7-2.7c1.6952859-1.0086392 3.6274482-1.55033473 5.6-1.57 4.12 0 5.72 1.83 5.63 5.51v4.79c0 1 .17 1.16 1.19 1.22l-.26 2.58c-2.56.29-3.74-.49-4.24-1.83zm0-4.76c-3.34.41-4.56 1.08-4.56 2.5.0106022.504724.2338415.9815044.614711 1.3128609.3808696.3313565.883953.4864769 1.385289.4271391.9801309-.0019694 1.9123119-.4243639 2.56-1.16z"/><path d="m68.97 19.58-.79 2.09c-1.33 3.65-2.84 4.75-5.31 4.75-1.1735328-.0082044-2.3308894-.2744989-3.39-.78l1-2.81c.646946.3676874 1.367805.5863365 2.11.64 1 0 1.51-.44 2.24-2.27l.58-1.53-5.2-13.15h3.68l3.34 9.57 3.19-9.57h3.61zm9.31-5.69c.0136407 1.0266303.4509825 2.0019738 1.2084627 2.6950681.7574801.6930943 1.7677357 1.0423026 2.7915373.9649319 1.4741878-.0257949 2.9143765-.4471451 4.17-1.22l.44 2.84c-1.5014461.7504202-3.161697 1.12775-4.84 1.1-4.3 0-7.14-2.72-7.14-7s2.9-7.25 6.9-7.25c3.54 0 5.5100139 2.15 5.5100139 5.43.0013405.7528223-.0961595 1.5025636-.2900139 2.23l-8.75.12zm5.83-2.11v-.26c0-1.8-.79-2.93-2.56-2.93-1.7355208.06185713-3.1281429 1.4544792-3.19 3.19zm9.48 8.06h-3.43v-13.32l3.43-.49v2.18c.6327365-1.3496634 1.9893809-2.21121059 3.48-2.21.833444-.01177127 1.6549678.19878734 2.38.61l-.76 3.08c-.581098-.33654677-1.2385707-.51898685-1.91-.53-1.19 0-2.29.76-3.19 2.38zm10.32-5.95c.01655 1.0256544.454763 1.9992241 1.211555 2.6916886s1.765358 1.0426977 2.788445.9683114c1.477152-.0269334 2.92027-.4481304 4.18-1.22l.44 2.84c-1.504724.7512432-3.16841 1.128574-4.85 1.1-4.29 0-7.13-2.72-7.13-7s2.9-7.25 6.9-7.25c3.54 0 5.51 2.15 5.51 5.43-.003578.7524992-.100997 1.5016143-.29 2.23l-8.76.12zm5.83-2.11v-.26c0-1.8-.78-2.93-2.55-2.93-1.739741.05212277-3.137877 1.4502589-3.19 3.19zm14.88-11.32 3.42-.46v19.84h-3.42v-1.32c-.974546 1.059267-2.331658 1.6856264-3.77 1.74-3.54 0-5.83-2.87-5.83-7s3-7.22 6.76-7.22c.9628.01054476 1.919146.158711 2.84.44zm-2.53 8.3c-2.29 0-3.59 1.88-3.59 4.35s1.3 4.26 3.36 4.26c1.029508.0140563 2.02239-.3816574 2.76-1.1v-6.75c-.739322-.51951054-1.626779-.78609848-2.53-.76z"/></g><g transform="translate(399.91 883.33)"><path d="m2.35002567 20.28c-.60601615.0504461-1.20539246-.1557079-1.65216246-.5682572-.44677-.4125494-.69993354-.9936343-.69785046-1.6017428-.00038145-.6034397.2552005-1.1787279.70325946-1.5829343.44805896-.4042063 1.04654104-.5993929 1.64675346-.5370657.59078899-.0543572 1.17667382.1461571 1.61027042.551102.4335966.4049448.67363427.9757766.65972958 1.568898.01251237.5969404-.22609731 1.1717259-.65769007 1.5843058-.43159276.4125798-1.01653813.6250695-1.61230993.5856942zm-2.06-19.35h4.09l-.84 13h-2.38zm11.37000003 5.54v8.2c0 2 .81 2.62 2.27 2.62 1.0858309-.0144814 2.1285202-.4272867 2.93-1.16v-9.66h3.42v13.29l-3.42.46v-2c-1.1346483 1.2416828-2.7283523 1.9644511-4.41 2-2.61000003 0-4.21000003-1.74-4.21000003-4.61v-9.2zm20.97 13.38v-8.18c0-2-.78-2.64-2.32-2.64-1.1212106.02646846-2.1917144.47251173-3 1.25v9.55h-3.42v-13.3l3.42-.46v2.11c1.1099192-1.29364928 2.706957-2.06862906 4.41-2.14 2.7 0 4.29 1.74 4.29 4.61v9.2zm6.03-5.57v-2.93h8.18v2.93zm10.85 5.57v-19.38l3.42-.47v19.85zm14.09-1.54c-.8674146 1.227914-2.2669027 1.970348-3.77 2-1.0561107.0740278-2.0966066-.2867185-2.8802388-.9985965-.7836323-.711878-1.2423378-1.7130568-1.2697612-2.7714035 0-2.47 1.8-4.55 7.92-4.76v-.32c0-1.8-.75-2.55-2.67-2.55-1.5728953.10815297-3.0962537.59535318-4.44 1.42l-.69-2.7c1.6951288-1.00779908 3.6279626-1.54623136 5.6-1.56 4.12 0 5.71 1.83 5.62 5.51v4.79c0 1 .18 1.16 1.19 1.21l-.26 2.59c-2.55.29-3.74-.5-4.23-1.83zm0-4.76c-3.33.41-4.55 1.07-4.55 2.5.0106021.504724.2338414.9815044.614711 1.3128609.3808695.3313565.883953.4864769 1.385289.4271391.9758017-.008629 1.9023067-.430098 2.55-1.16z"/><path d="m77.2300257 19.59-.78 2.08c-1.34 3.66-2.84 4.76-5.31 4.76-1.1735328-.0082044-2.3308895-.2744989-3.39-.78l1-2.82c.6477103.3743034 1.3733693.5933703 2.12.64 1 0 1.51-.43 2.23-2.26l.58-1.54-5.22-13.2h3.69l3.33 9.58 3.19-9.58h3.66zm9.31-5.69c.0163702 1.0248794.454898 1.9975895 1.212058 2.688498.7571601.6909085 1.7658493 1.038784 2.787942.961502 1.4762949-.0234327 2.919471-.4411942 4.18-1.21l.43 2.84c-1.5006397.7526726-3.1614508 1.1301296-4.84 1.1-4.29 0-7.14-2.73-7.14-7s2.91-7.25 6.91-7.25c3.54 0 5.51 2.14 5.51 5.42-.002955.7558334-.1003769 1.5083335-.29 2.24l-8.76.11zm5.83-2.12v-.23c0-1.8-.78-2.93-2.55-2.93-1.7397411.05212277-3.1378773 1.4502589-3.19 3.19zm9.4800003 8.07h-3.4200003v-13.29l3.4200003-.49v2.17c.639447-1.34238886 1.993091-2.1981411 3.48-2.2.834142-.01773352 1.657223.19322421 2.38.61l-.75 3.07c-.586004-.33224046-1.246424-.51110428-1.92-.52-1.19 0-2.29.75-3.19 2.38zm10.32-5.95c.019264 1.0239016.458657 1.9948459 1.215132 2.6851293s1.763485 1.0391812 2.784868.9648707c1.473326-.0222916 2.913574-.4402054 4.17-1.21l.44 2.84c-1.501446.7504202-3.161697 1.12775-4.84 1.1-4.3 0-7.14-2.73-7.14-7s2.9-7.25 6.9-7.25c3.54 0 5.52 2.14 5.52 5.42-.001146.7566047-.102014 1.5097579-.3 2.24l-8.76.11zm5.84-2.12v-.23c0-1.8-.79-2.93-2.56-2.93-1.735521.06185713-3.128143 1.4544792-3.19 3.19zm14.87-11.31 3.42-.47v19.85h-3.42v-1.31c-.974546 1.059267-2.331658 1.6856264-3.77 1.74-3.54 0-5.83-2.87-5.83-7s3-7.22 6.76-7.22c.962426.00591933 1.918958.15074632 2.84.43zm-2.52 8.29c-2.29 0-3.6 1.89-3.6 4.36s1.31 4.26 3.37 4.26c1.026058.0113973 2.014852-.3841202 2.75-1.1v-6.73c-.730559-.53271363-1.616071-.81031459-2.52-.79z"/></g><path d="m11.66 19.55-11.66-5.4v-2.29l11.63-5.39v2.93l-7.86 3.48v.29l7.89 3.45zm5.59.77c-.6077602.0506076-1.2087629-.1568674-1.6558702-.5716308-.4471072-.4147633-.6990436-.9985254-.6941298-1.6083692-.0003944-.6034397.2551876-1.1787279.7032465-1.5829343.448059-.4042063 1.0465411-.5993929 1.6467535-.5370657.5891424-.0513332 1.1722838.150538 1.6035945.5551303.4313108.4045924.6700102.9736516.6564055 1.5648697.0182485.5977247-.2167942 1.1753564-.6471954 1.5905222s-1.0161253.6292471-1.6128046.5894778zm-2.06-19.35h4.09l-.84 13h-2.38zm8.06 18.87v-19.38l3.43-.46v19.84zm14.1-1.52c-.8685027 1.2266771-2.2673167 1.9687535-3.77 2-1.0570995.0711731-2.0974947-.2919126-2.8807723-1.0053558s-1.241661-1.7155101-1.2692277-2.7746442c0-2.46 1.8-4.55 7.92-4.75v-.32c0-1.8-.76-2.56-2.67-2.56-1.573015.09995133-3.0975269.58408686-4.44 1.41l-.69-2.7c1.6910295-1.01004062 3.6203717-1.55191311 5.59-1.57 4.12 0 5.72 1.83 5.63 5.51v4.76c0 1 .18 1.16 1.19 1.22l-.26 2.58c-2.55.29-3.74-.49-4.23-1.83zm0-4.76c-3.34.41-4.56 1.08-4.56 2.5.013654.5036476.237768.9785188.617881 1.3092172.3801131.3306984.8814268.4869493 1.382119.4307828.9769211-.0035417 1.9054062-.4259114 2.55-1.16zm11.08 6.76c-1.805843-.006141-3.5857103-.4305709-5.2-1.24l.76-2.67c1.3825285.7782039 2.9340739 1.2072818 4.52 1.25 1.34 0 2.21-.56 2.21-1.48s-1.13-1.43-2.7-1.8c-2.52-.58-4.53-1.63-4.53-4.15s2.12-4.18 5.34-4.18c1.685157.00710815 3.3492099.37538216 4.88 1.08l-.76 2.66c-1.31039-.6585755-2.7449376-1.03339792-4.21-1.1-1.24 0-2 .47-2 1.34s1.13 1.36 2.7 1.74c2.55.61 4.56 1.59 4.56 4.2s-2.15 4.35-5.57 4.35zm13.08 0c-3 0-4.56-1.31-4.44-4.53l.2-6.3-2.13-.27.09-2.17 2.09-.67.06-3h3.3l-.06 3.13h3.77l-.08 2.82h-3.89l-.17 6.18c-.0850279.4948473.071755 1.0005135.421814 1.3604611.3500589.3599477.8511626.5307525 1.348186.4595389.7102321-.0215216 1.4124441-.1565624 2.08-.4l.47 2.78c-.9767047.3799429-2.0122641.5863779-3.06.61zm4.95-.77v-2.93l7.86-3.45v-.29l-7.86-3.48v-2.93l11.68 5.39v2.29z" transform="translate(428.86 845.68)"/><path d="m11.66 19.9-11.66-5.4v-2.29l11.66-5.39v2.93l-7.86 3.48v.29l7.86 3.45zm5.59.73c-.6077602.0506076-1.2087629-.1568674-1.6558702-.5716308-.4471072-.4147633-.6990436-.9985254-.6941298-1.6083692-.0003944-.6034397.2551876-1.1787279.7032465-1.5829343.448059-.4042063 1.0465411-.5993929 1.6467535-.5370657.5891424-.0513332 1.1722838.150538 1.6035945.5551303.4313108.4045924.6700102.9736516.6564055 1.5648697.0151388.5968058-.2208777 1.1725713-.6505552 1.5870391-.4296776.4144677-1.0135718.6295894-1.6094448.5929609zm-2.06-19.35h4.09l-.84 13h-2.38zm15.75 2.26c-.6277853-.29375348-1.3075242-.46028952-2-.49-1.24 0-1.77.72-1.77 2.38v1.47h3.89l-.09 2.82h-3.71v10.47h-3.4v-10.44l-2.32-.18.11-2.17 2.18-.64v-1.42c.09-3.83 1.83-5.34 4.84-5.34.992839.02502473 1.9739083.22123858 2.9.58.03.06-.63 2.99-.63 2.96zm3.68 1c-1.1294223 0-2.045-.91557769-2.045-2.045s.9155777-2.045 2.045-2.045 2.045.91557769 2.045 2.045-.9155777 2.045-2.045 2.045zm-1.71 15.63v-13.27l3.42-.49v13.78zm10.41.02h-3.42v-13.29l3.42-.49v2.18c.6365687-1.34628521 1.990809-2.20630564 3.48-2.21.833444-.01177127 1.6549678.19878734 2.38.61l-.76 3.08c-.581098-.33654677-1.2385707-.51898685-1.91-.53-1.19 0-2.29.76-3.19 2.38zm12.15.46c-1.8026358-.006233-3.5792339-.4306996-5.19-1.24l.75-2.67c1.3865802.7771511 2.9410881 1.2060992 4.53 1.25 1.33 0 2.2-.56 2.2-1.48s-1.13-1.43-2.7-1.8c-2.52-.58-4.52-1.63-4.52-4.15s2.12-4.18 5.33-4.18c1.685157.00710815 3.3492099.37538216 4.88 1.08l-.76 2.66c-1.3068071-.65863079-2.738112-1.03349635-4.2-1.1-1.25 0-2 .47-2 1.34s1.13 1.36 2.69 1.74c2.56.61 4.56 1.59 4.56 4.2s-2.15 4.35-5.57 4.35zm13.08-.02c-3 0-4.56-1.31-4.44-4.53l.2-6.29-2.09-.24.09-2.17 2.09-.67.06-3h3.31l-.06 3.13h3.77l-.09 2.82h-3.89l-.17 6.18c-.0850279.4948473.071755 1.0005135.421814 1.3604611.3500589.3599477.8511626.5307525 1.348186.4595389.7134895-.0214849 1.4189993-.1565107 2.09-.4l.47 2.79c-.9955266.3686236-2.0484194.558212-3.11.56zm4.96-.73v-2.93l7.86-3.45v-.29l-7.86-3.48v-2.93l11.63 5.39v2.29z" transform="translate(425.34 805.93)"/><path d="m25.29 11.29c-2.4337894-1.46979645-5.2169795-2.26055392-8.06-2.29-5.51 0-9.07 3.72-9.07 9.74s3.36 9.89 9.12 9.89c3.0000979-.0274159 5.9267624-.9311365 8.42-2.6l1.68 7.19c-3.264629 1.546916-6.8375711 2.3333052-10.45 2.3-10.2 0-16.93-5.87-16.93-16.58 0-10.3 6.68-16.83 17.18-16.83 3.6551051.0009509 7.2635315.82104782 10.56 2.4zm19.61 20.57c-1.68 2-3.56 3.62-6.83 3.62-4.08 0-7.24-2.91-7.24-6.58 0-4.49 3.37-8.11 14-8.42v-.46c0-2.49-1.27-3.62-4.18-3.62-2.8299484.2004054-5.5813872 1.0196924-8.06 2.4l-1.63-5.76c3.3622217-1.7982224 7.1074116-2.7619571 10.92-2.81 8.21 0 10.91 3.73 10.81 10.36v7c0 1.63.3 1.79 1.93 1.94l-.76 5.61c-5.15.66-7.7-.71-8.77-3.31zm-.05-7.71c-4.84.57-6.63 1.48-6.63 3.57 0 1.53 1.23 2.55 3 2.55 1.3937871.0264343 2.7312914-.549385 3.67-1.58zm21.78 11.3301206c-3.4428596.0106601-6.849645-.701358-10-2.0901206l1.53-5.67c2.6775862 1.4091633 5.6450692 2.1792713 8.67 2.25 2.09 0 3.22-.72 3.22-1.94s-1.33-1.84-4-2.45c-5.51-1.07-9-3.11-9-7.75 0-4.43 3.88-7.6 10.45-7.6 3.312086.0401992 6.5852823.7192856 9.64 2l-1.58 5.61c-2.5423305-1.2710504-5.3210995-1.9997961-8.16-2.14-1.88 0-2.9.61-2.9 1.79s1.48 1.78 4.08 2.34c5.61 1.23 8.92 3.06 8.92 7.8-.11 4.33-3.88 7.8501206-10.87 7.8501206zm26.66-.0001206c-7.85 0-12.85-4.39-12.85-12.45 0-7.85 5.1-12.8 13.06-12.8 2.9916228-.0593331 5.9508451.6280588 8.61 2l-1.53 5.92c-1.9085047-1.1353982-4.070931-1.7748438-6.29-1.86-3.77 0-5.86 2.65-5.86 6.48 0 4.23 2.39 6.58 6.06 6.58 2.220641.0103391 4.398522-.6104264 6.28-1.79l1.17 6c-2.6715028 1.3697285-5.6498663 2.0308219-8.65 1.92zm25.82-3.62c-1.69 2-3.57 3.62-6.84 3.62-4.07 0-7.24-2.91-7.24-6.58 0-4.49 3.37-8.11 14-8.42v-.46c0-2.49-1.28-3.62-4.18-3.62-2.830773.1958623-5.583182 1.015438-8.06 2.4l-1.63-5.76c3.358656-1.7981395 7.100595-2.7619202 10.91-2.81 8.21 0 10.91 3.73 10.81 10.36v7c0 1.63.31 1.79 1.94 1.94l-.77 5.61c-5.15.66-7.7-.71-8.77-3.31zm-.05-7.71c-4.85.57-6.63 1.48-6.63 3.57 0 1.53 1.22 2.55 3 2.55 1.393787.0264343 2.731291-.549385 3.67-1.58zm28.86-23.15 7.86-1v34.68h-7.86v-2.39c-1.6792 1.9231699-4.078607 3.0667785-6.63 3.16-5.86 0-10.15-4.79-10.15-12.28 0-7.86 5.51-12.86 11.89-12.86 1.664094.0014711 3.316454.2785539 4.89.82zm-3.63 15.1c-3.31 0-5.3 2.7-5.3 6.63s2 6.42 4.94 6.42c1.504523.0505547 2.959325-.5422775 4-1.63v-10.4c-1.081384-.7022291-2.351175-1.0580496-3.64-1.02zm23.57 8.62c.26 3.16 2.45 5 6.28 5 2.736724-.0876186 5.405171-.8761017 7.75-2.29l.76 6.07c-2.892114 1.3300627-6.047264 1.9898069-9.23 1.93-8.05 0-13.26-4.48-13.26-12.39 0-7.75 5.31-12.8 12.85-12.8 6.74 0 10.41 4 10.41 9.95-.009388 1.4082649-.18051 2.8107907-.51 4.18l-15.05.25zm8.27-4.08v-.46c0-2.81-1.18-4.54-3.63-4.54-2.7 0-4.33 2.34-4.58 5zm23.86 14.07v-31.87h8.11v25.09h13.36v6.78zm38.81-2.85c-1.68 2-3.57 3.62-6.83 3.62-4.08 0-7.24-2.91-7.24-6.58 0-4.49 3.36-8.11 14-8.42v-.46c0-2.49-1.27-3.62-4.18-3.62-2.829948.2004054-5.581387 1.0196924-8.06 2.4l-1.63-5.76c3.358656-1.7981395 7.100595-2.7619202 10.91-2.81 8.21 0 10.92 3.73 10.81 10.36v7c0 1.63.31 1.79 1.94 1.94l-.76 5.61c-5.15.66-7.7-.71-8.77-3.31zm0-7.71c-4.84.57-6.63 1.48-6.63 3.57 0 1.53 1.23 2.55 3 2.55 1.393787.0264343 2.731291-.549385 3.67-1.58zm28 9.44-1.17 3.11c-2.45 6.94-5.41 9.0001974-10.4 9.0001974-2.417549.0116611-4.807856-.5107917-7-1.5301974l2.34-6c1.143675.6397024 2.41325 1.0219398 3.72 1.12 1.68 0 2.44-.61 3.36-2.91l.66-1.83-9.28-23.56h8.42l5 15.6 4.58-15.6h8.37zm17.34-8.87c.26 3.16 2.45 5 6.28 5 2.736724-.0876186 5.405171-.8761017 7.75-2.29l.76 6.07c-2.895211 1.3206467-6.048198 1.9799387-9.23 1.93-8.06 0-13.26-4.48-13.26-12.39 0-7.75 5.31-12.8 12.85-12.8 6.73 0 10.41 4 10.41 9.95-.009388 1.4082649-.18051 2.8107907-.51 4.18l-15 .25zm8.26-4.08v-.46c0-2.81-1.17-4.54-3.62-4.54-2.7 0-4.33 2.34-4.59 5zm19.59 14.07h-7.86v-23.3l7.86-1v3.46c1.37-2.39 3.21-3.67 5.71-3.67 1.370582.018354 2.717333.3610388 3.93 1l-1.59 6.94c-.92986-.4715054-1.957429-.7181219-3-.72-1.94 0-3.67 1-5.1 3.47zm20.91.77c-3.460089.0217243-6.885446-.6906136-10.05-2.09l1.53-5.67c2.677191 1.4101854 5.644918 2.1803568 8.67 2.25 2.09 0 3.21-.72 3.21-1.94s-1.32-1.84-4-2.45c-5.5-1.07-9-3.11-9-7.75 0-4.43 3.87-7.6 10.45-7.6 3.311977.0411993 6.584984.7202464 9.64 2l-1.58 5.61c-2.54233-1.2710504-5.321099-1.9997961-8.16-2.14-1.89 0-2.91.61-2.91 1.79s1.48 1.78 4.08 2.34c5.61 1.23 8.93 3.06 8.93 7.8-.05 4.33-3.83 7.85-10.81 7.85z" transform="translate(296.71 755.71)"/><path d="m2 4.11912792c-1.12930248-.03290659-2.02138925-.96925871-1.99960955-2.09883802s.94929808-2.03084717 2.07903714-2.02019647c1.12973906.01065071 2.04010054.92924533 2.04057986 2.05903449.08067543 1.05602982-.70474207 1.9797879-1.76 2.07zm-1.70999255 15.80999998v-13.31999998l3.42-.49v13.77999998zm15.78000005 0v-8.16c0-1.99999998-.79-2.62999998-2.32-2.62999998-1.1208733.01886288-2.1929145.46197325-3 1.23999998v9.55h-3.43000005v-13.31999998l3.43000005-.46v2.11c1.1084108-1.29560451 2.7063545-2.07102387 4.41-2.14 2.69 0 4.29 1.74 4.29 4.60999998v9.2zm6.98 0v-19.37999998l3.43-.47v19.84999998zm8.7899925-15.80999998c-1.1293025-.03290659-2.0213893-.96925871-1.9996095-2.09883802.0217797-1.12957931.949298-2.03084717 2.0790371-2.02019647 1.129739.01065071 2.0401005.92924533 2.0405799 2.05903449.0806754 1.05602982-.7047421 1.9797879-1.76 2.07zm-1.7099925 15.80999998v-13.31999998l3.42-.49v13.77999998zm15.78 0v-8.16c0-1.99999998-.79-2.62999998-2.32-2.62999998-1.1208733.01886288-2.1929145.46197325-3 1.23999998v9.55h-3.43v-13.31999998l3.43-.46v2.11c1.1084108-1.29560451 2.7063545-2.07102387 4.41-2.14 2.69 0 4.29 1.74 4.29 4.60999998v9.2zm9.58-5.95c.0209918.9919841.4353047 1.9349726 1.1517439 2.6214039s1.6762817 1.0600419 2.6682561 1.0385961h.18c1.4733265-.0222916 2.9135748-.4402054 4.17-1.21l.44 2.84c-1.5065606.7460886-3.1689772 1.1231315-4.85 1.1-4.29 0-7.13-2.73-7.13-7 0-4.26999998 2.9-7.24999998 6.9-7.24999998 3.54 0 5.51 2.14 5.51 5.41999998-.0009254.7559669-.0983802 1.5087213-.29 2.24l-8.76.11zm5.83-2.12v-.25c0-1.79999998-.78-2.92999998-2.55-2.92999998-1.7376235.05701675-3.1329833 1.45237658-3.19 3.18999998zm16.8 8.53c-1.8037869-.0064016-3.581092-.4344616-5.19-1.25l.76-2.67c1.381277.7812332 2.9335911 1.2105236 4.52 1.25 1.33 0 2.2-.55 2.2-1.48s-1.13-1.42-2.69-1.8c-2.53-.58-4.53-1.62-4.53-4.14 0-2.51999998 2.12-4.17999998 5.34-4.17999998 1.6813244.00291233 3.3423065.3678509 4.87 1.07l-.75 2.67c-1.3087662-.66287107-2.7442527-1.03793879-4.21-1.1-1.24 0-2 .46-2 1.32999998 0 .87 1.13 1.37 2.7 1.74 2.55.61 4.55 1.6 4.55 4.21s-2.14 4.35-5.57 4.35zm13.08-.03c-3 0-4.55-1.3-4.44-4.52l.21-6.29999998-2.09-.23.09-2.18 2.08-.66.06-3h3.31l-.06 3.13h3.77l-.09 2.81h-3.88l-.18 6.17999998c-.0723403.4126749.0232636.8371454.2655382 1.1789592s.6111201.572613 1.0244618.6410408c.1590293.0249245.3209706.0249245.48 0 .7144301-.0211864 1.4205153-.1597007 2.09-.41l.47 2.79c-.9949083.3720345-2.0478197.5650119-3.11.57zm12.5299995-.7-.78 2.09c-1.34 3.66-2.85 4.76-5.3099995 4.76-1.1763824-.0112521-2.3363474-.2773617-3.4-.78l1-2.82c.6491284.3710173 1.3740064.5898484 2.12.64 1 0 1.51-.43 2.23-2.26l.5799995-1.54-5.2199995-13.19999998h3.68l3.3399995 9.57999998 3.19-9.57999998h3.66zm6.87.27v-19.37999998l3.43-.47v19.84999998zm9.66-5.95c.015786.9866468.422934 1.9265971 1.13185 2.6130077.708916.6864105 1.661508 1.0630343 2.64815 1.0469923h.22c1.476733-.0205025 2.920667-.4384832 4.18-1.21l.43 2.84c-1.501044.7515431-3.161574 1.1289362-4.84 1.1-4.29 0-7.14-2.73-7.14-7 0-4.26999998 2.9-7.24999998 6.91-7.24999998 3.54 0 5.51 2.14 5.51 5.41999998-.000925.7559669-.09838 1.5087213-.29 2.24l-8.76.11zm5.83-2.12v-.25c0-1.79999998-.78-2.92999998-2.55-2.92999998-1.739741.05212277-3.137877 1.45025888-3.19 3.18999998zm10.21 8.53c-1.807123-.0052126-3.587946-.433295-5.2-1.25l.76-2.67c1.381278.7812332 2.933592 1.2105236 4.52 1.25 1.34 0 2.21-.55 2.21-1.48s-1.13-1.42-2.7-1.8c-2.52-.58-4.52-1.62-4.52-4.14 0-2.51999998 2.11-4.17999998 5.33-4.17999998 1.684527.00303889 3.348743.36793855 4.88 1.07l-.76 2.67c-1.305722-.6614949-2.737653-1.03652445-4.2-1.1-1.25 0-2 .46-2 1.32999998 0 .87 1.13 1.37 2.7 1.74 2.55.61 4.56 1.6 4.56 4.21s-2.16 4.35-5.58 4.35z" transform="translate(397.51 667.3909)"/><path d="m0 34.71v-31.87h23.3v6.53h-15.35v6.12h12.34v6.47h-12.34v6.22h15.35v6.53zm28.3 0v-33.71l7.85-1v34.68zm19.87-9.99c.25 3.16 2.45 5 6.27 5 2.7367236-.0876186 5.4051707-.8761017 7.75-2.29l.77 6.07c-2.8952111 1.3206467-6.0481984 1.9799387-9.23 1.93-8.06 0-13.26-4.48-13.26-12.39 0-7.75 5.3-12.8 12.85-12.8 6.73 0 10.4000013 4 10.4000013 9.95.0005423 1.4088842-.1707217 2.8125775-.5100013 4.18l-15 .25zm8.26-4.08v-.46c0-2.81-1.17-4.54-3.62-4.54-2.7 0-4.33 2.34-4.59 5zm41.58 14.07v-14c0-2.86-1.22-3.83-3.21-3.83-1.417348.0268936-2.7759623.5710506-3.82 1.53v16.27h-7.81v-14c0-2.86-1.27-3.83-3.26-3.83-1.4059717.0067345-2.7636504.5136484-3.83 1.43v16.37h-7.91v-23.3l7.85-1v3.31c1.9041374-2.1902245 4.6482279-3.4695885 7.55-3.52 2.8955274-.1274612 5.5628988 1.5656009 6.68 4.24 2.2-2.55 5-4.24 8.21-4.24 4.59 0 7.4 3.11 7.4 8.21v16.27zm19.79-9.99c.26 3.16 2.45 5 6.28 5 2.736724-.0876186 5.405171-.8761017 7.75-2.29l.76 6.07c-2.892114 1.3300627-6.047264 1.9898069-9.23 1.93-8.06 0-13.26-4.48-13.26-12.39 0-7.75 5.31-12.8 12.85-12.8 6.73 0 10.41 4 10.41 9.95-.009388 1.4082649-.18051 2.8107907-.51 4.18l-15.05.25zm8.26-4.08v-.46c0-2.81-1.17-4.54-3.62-4.54-2.7 0-4.33 2.34-4.59 5zm27.24 14.07v-14c0-2.86-1.28-3.78-3.37-3.78-1.597069.0554412-3.118979.6919412-4.28 1.79v16h-7.85v-23.3l7.85-1v3.87c1.939271-2.4408237 4.836294-3.9275973 7.95-4.08 4.75 0 7.55 3.11 7.55 8.16v16.32zm22.87.77c-5.87 0-9-2.4-8.72-8.62l.35-9-3.57-.61.16-5 3.57-1.17.1-5.41h7.6l-.05 5.66h5.91l-.15 6.17h-6.33l-.25 8.52c-.1 2.19 1.17 3.11 3.11 3.11 1.062501-.036723 2.11235-.2426418 3.11-.61l.92 6.12c-1.861186.5929278-3.806995.8766915-5.76.84zm8-10v-6.27h16.21v6.27zm50 9.23h-8l-2.35-6.78h-11.87l-2.3 6.78h-8.05l11.32-31.87h10.15zm-16.26-25.6-4.24 12.5h8.31zm28.31 26.37c-5.86 0-9-2.4-8.72-8.62l.36-9-3.57-.61.15-5 3.57-1.17.1-5.41h7.6l-.05 5.66h5.91l-.15 6.17h-6.32l-.26 8.52c-.1 2.19 1.18 3.11 3.11 3.11 1.062501-.036723 2.11235-.2426418 3.11-.61l.92 6.12c-1.861186.5929278-3.806995.8766915-5.76.84zm19.23 0c-5.87 0-9-2.4-8.72-8.62l.35-9-3.57-.61.16-5 3.57-1.17.1-5.41h7.6v5.62h5.91l-.15 6.17h-6.32l-.26 8.52c-.1 2.19 1.17 3.11 3.11 3.11 1.062501-.036723 2.11235-.2426418 3.11-.61l.92 6.12c-1.874966.6113884-3.83808.9087274-5.81.88zm22.49-3.62c-1.68 2-3.57 3.62-6.84 3.62-4.08 0-7.24-2.91-7.24-6.58 0-4.49 3.37-8.11 14-8.42v-.46c0-2.49-1.28-3.62-4.18-3.62-2.830773.1958623-5.583182 1.015438-8.06 2.4l-1.63-5.76c3.358656-1.7981395 7.100595-2.7619202 10.91-2.81 8.21 0 10.91 3.73 10.81 10.36v7c0 1.63.31 1.79 1.94 1.94l-.77 5.61c-5.15.66-7.7-.71-8.77-3.31zm0-7.71c-4.85.57-6.63 1.48-6.63 3.57 0 1.53 1.22 2.55 3 2.55 1.393787.0264343 2.731291-.549385 3.67-1.58zm24.89 11.33c-7.86 0-12.86-4.39-12.86-12.45 0-7.85 5.1-12.8 13.06-12.8 2.994202-.0534683 5.955246.6335488 8.62 2l-1.48 5.91c-1.908932-1.1232968-4.066704-1.7555101-6.28-1.84-3.77 0-5.86 2.65-5.86 6.48 0 4.23 2.4 6.58 6.07 6.58 2.217547.0106449 4.392303-.6102183 6.27-1.79l1.17 6c-2.692003 1.3716579-5.691045 2.0293124-8.71 1.91zm28.55-.77v-14c0-2.86-1.27-3.78-3.26-3.78-1.629688.0413603-3.187805.6781249-4.38 1.79v16h-7.86v-33.72l7.86-1v14.29c1.960762-2.4299541 4.87958-3.8893632 8-4 4.69 0 7.5 3.11 7.5 8.16v16.32zm19.79-9.99c.26 3.16 2.45 5 6.27 5 2.739354-.090785 5.410253-.8789754 7.76-2.29l.76 6.07c-2.895211 1.3206467-6.048198 1.9799387-9.23 1.93-8.06 0-13.26-4.48-13.26-12.39 0-7.75 5.3-12.8 12.85-12.8 6.73 0 10.4 4 10.4 9.95-.001016 1.4081893-.168853 2.8113001-.5 4.18l-15 .25zm8.26-4.08v-.46c0-2.81-1.17-4.54-3.62-4.54-2.7 0-4.33 2.34-4.59 5zm27.24-19.64 7.85-1v34.68h-7.85v-2.39c-1.6792 1.9231699-4.078607 3.0667785-6.63 3.16-5.87 0-10.15-4.79-10.15-12.28 0-7.86 5.51-12.86 11.88-12.86 1.667358.0014708 3.323007.2785385 4.9.82zm-3.62 15.1c-3.32 0-5.31 2.7-5.31 6.63s2 6.42 4.95 6.42c1.504523.0505547 2.959325-.5422775 4-1.63v-10.4c-1.081384-.7022291-2.351175-1.0580496-3.64-1.02z" transform="translate(265.83 619.71)"/><path d="m5.19 20.31c-1.80436941-.0015406-3.58278641-.4298684-5.19-1.25l.75-2.67c1.3848766.7812867 2.94042973 1.2105232 4.53 1.25 1.33 0 2.2-.55 2.2-1.48s-1.13-1.42-2.7-1.8c-2.52-.58-4.52-1.62-4.52-4.14s2.12-4.18 5.34-4.18c1.68132449.00291233 3.34230659.3678509 4.87 1.07l-.75 2.67c-1.30876617-.66287107-2.74425263-1.03793879-4.21-1.1-1.25 0-2 .46-2 1.33s1.13 1.37 2.7 1.74c2.55.61 4.55 1.6 4.55 4.21s-2.15 4.35-5.57 4.35zm17.05-.46v-8.12c0-2-.78-2.64-2.23-2.64-1.121005.02743579-2.1911723.47333884-3 1.25v9.55h-3.43v-19.42l3.43-.47v8.16c1.1360489-1.31805744 2.7801914-2.08920392 4.52-2.12 2.58 0 4.18 1.74 4.18 4.61v9.2zm14.01-1.54c-.8674145 1.227914-2.2669027 1.970348-3.77 2-2.1372295.1487809-3.990566-1.4628161-4.14-3.6-.0048254-.0565639-.0048254-.1134361 0-.17 0-2.47 1.8-4.55 7.92-4.76v-.32c0-1.8-.75-2.55-2.67-2.55-1.573272.10618124-3.097091.59352878-4.44 1.42l-.69-2.7c1.6943622-1.009591 3.6276925-1.54816159 5.6-1.56 4.11 0 5.71 1.83 5.62 5.51v4.79c0 1 .18 1.16 1.19 1.21l-.26 2.59c-2.55.29-3.74-.5-4.23-1.83zm0-4.76c-3.34.41-4.55 1.07-4.55 2.5.0104909.4747765.2092173.9259255.5524351 1.2541392.3432179.3282138.8027937.5065888 1.2775649.4958608h.17c.9758017-.008629 1.9023068-.430098 2.55-1.16zm15.75-13.08 3.42-.47v19.85h-3.42v-1.32c-.972531 1.0620282-2.3308633 1.6889508-3.77 1.74-3.54 0-5.83-2.87-5.83-7s2.95-7.22 6.75-7.22c.9656286.00689643 1.9253212.15169217 2.85.43zm-2.53 8.26c-2.29 0-3.59 1.89-3.59 4.36s1.3 4.26 3.36 4.26c1.0282962.0075573 2.0187993-.3872085 2.76-1.1v-6.72c-.7333961-.53568963-1.6219495-.81665514-2.53-.8zm15.58 11.55c-3.92 0-6.76-2.67-6.76-7.11s3-7.16 6.93-7.16 6.76 2.73 6.76 7.13c.2279618 3.7081671-2.5919819 6.8996272-6.3 7.13-.21.01-.42.02-.63.01zm.05-11.52c-2.23 0-3.45 1.8-3.45 4.38s1.28 4.36 3.51 4.36 3.42-1.74 3.42-4.33-1.27-4.44-3.48-4.44zm11.81 11.14-4-13.43h3.57l2.32 9.4 2.67-9.37h3.38l2.87 9.31 2-9.34h3.62l-3.92 13.43h-3.36l-3-9.39-2.9 9.39z" transform="translate(422.15 524.47)"/><path d="m8.7 19.84v-8.15c0-2-.78-2.64-2.23-2.64-1.11978431.03313725-2.18798341.47822021-3 1.25v9.54h-3.47v-19.38l3.42-.46v8.15c1.13993056-1.31855619 2.78727177-2.08949733 4.53-2.12 2.58 0 4.17 1.74 4.17 4.61v9.2zm12.92.41c-3.91 0-6.75-2.67-6.75-7.1s3-7.17 6.93-7.17 6.76 2.73 6.76 7.14c.2279725 3.7026481-2.5874998 6.8896375-6.29 7.12-.22.01-.43.01-.65.01zm.06-11.51c-2.23 0-3.45 1.8-3.45 4.38s1.28 4.35 3.51 4.35 3.42-1.74 3.42-4.32-1.27-4.41-3.46-4.41zm13.89 11.56c-1.8024188-.0080442-3.5786087-.4324133-5.19-1.24l.76-2.67c1.3820264.7781234 2.9343845 1.2039915 4.52 1.24 1.34 0 2.2-.55 2.2-1.48s-1.13-1.42-2.69-1.79c-2.53-.58-4.53-1.63-4.53-4.15s2.12-4.18 5.34-4.18c1.6807808.00784652 3.3407318.37255854 4.87 1.07l-.75 2.67c-1.3109191-.6571715-2.745163-1.03191456-4.21-1.1-1.24 0-2 .47-2 1.34s1.13 1.36 2.7 1.74c2.55.6 4.55 1.59 4.55 4.2s-2.14 4.35-5.57 4.35zm13.13-.05c-3 0-4.55-1.3-4.44-4.52l.21-6.3-2.09-.23.08-2.17 2.09-.67.06-3h3.31l-.06 3.13h3.77l-.08 2.82h-3.85l-.18 6.18c-.0690558.414116.0306252.8386385.2767771 1.1787415.2461518.3401029.618266.56745 1.0332229.6312585.1523143.0250007.3076857.0250007.46 0 .7133596-.0226613 1.4186857-.1576519 2.09-.4l.47 2.78c-1.0075023.3767079-2.0743748.569761-3.15.57z" transform="translate(443.3 485.75)"/><path d="m2.34373655 20.26c-.5759214.0468969-1.14676327-.1378391-1.58601229-.5132656-.43924903-.3754265-.71062634-.910536-.75398771-1.4867344-.00498207-.0665736-.00498207-.1334264 0-.2 0-1.1763665.95363349-2.13 2.13-2.13h.22c1.14835137-.0981451 2.15941025.7518602 2.26 1.9.00498518.0732486.00498518.1467514 0 .22.01612065.5640108-.19326158 1.1111794-.58178368 1.5203476-.38852209.4091682-.92412677.6465752-1.48821632.6596524zm-2.06-19.35h4.09l-.84 13h-2.38zm16.77000005 18.93v-8.15c0-2-.79-2.64-2.24-2.64-1.121005.02743579-2.1911723.47333884-3 1.25v9.54h-3.43000005v-19.37l3.43000005-.47v8.15c1.1394416-1.31226863 2.7823499-2.07920149 4.52-2.11 2.58 0 4.18 1.74 4.18 4.61v9.19zm12.96.42c-3.92 0-6.76-2.67-6.76-7.11s3-7.16 6.93-7.16 6.76 2.72 6.76 7.13c.2338479 3.7027707-2.5773371 6.8944506-6.28 7.13-.22.01-.43.01-.65.01zm.06-11.52c-2.24 0-3.45 1.8-3.45 4.38s1.27 4.35 3.51 4.35 3.42-1.74 3.42-4.32-1.28-4.39-3.48-4.39zm13.89 11.57c-1.8065061-.0103307-3.5861705-.4381347-5.2-1.25l.76-2.67c1.381277.7812332 2.9335911 1.2105236 4.52 1.25 1.34 0 2.21-.55 2.21-1.48s-1.13-1.42-2.7-1.8c-2.52-.58-4.52-1.62-4.52-4.15s2.11-4.17 5.33-4.17c1.684527.0030389 3.3487422.36793856 4.88 1.07l-.76 2.67c-1.3046114-.66583509-2.7367724-1.0443348-4.2-1.11-1.25 0-2 .47-2 1.34s1.14 1.36 2.7 1.74c2.56.61 4.56 1.59 4.56 4.21s-2.16 4.35-5.58 4.35zm13.08-.05c-3 0-4.56-1.31-4.44-4.53l.2-6.29-2.09-.23.09-2.18 2.09-.67.06-3h3.3l-.05 3.14h3.77l-.09 2.81h-3.89l-.17 6.18c-.0723403.4126749.0232636.8371453.2655382 1.1789591s.6111201.5726131 1.0244618.6410409c.1590293.0249245.3209706.0249245.48 0 .7138776-.0260391 1.4191936-.1644026 2.09-.41l.46 2.78c-.9917003.372286-2.0407854.5685664-3.1.58z" transform="translate(439.1163 443.74)"/><path d="m2.33372936 20.28c-.5754942.0496218-1.14674883-.1344131-1.5850522-.5106392-.43830338-.3762261-.70678342-.9129934-.7449478-1.4893608-.00497248-.0699117-.00497248-.1400883 0-.21 0-1.1708437.94915633-2.12 2.12-2.12h.22c1.14299932-.1041937 2.15437975.7371316 2.26 1.88.00498644.0765856.00498644.1534144 0 .23.01612065.5640108-.19326158 1.1111794-.58178368 1.5203476-.38852209.4091682-.92412677.6465752-1.48821632.6596524zm-2.05-19.35h4.09l-.85 13h-2.37zm12.21000004 19.38c-1.8077048-.0003416-3.58964292-.4286921-5.20000004-1.25l.76-2.67c1.38127705.7812332 2.93359114 1.2105236 4.52000004 1.25 1.34 0 2.21-.55 2.21-1.48s-1.13-1.42-2.7-1.8c-2.52000004-.58-4.53000004-1.62-4.53000004-4.14s2.12-4.18 5.34000004-4.18c1.6813244.00291233 3.3423066.3678509 4.87 1.07l-.75 2.67c-1.3087662-.66287107-2.7442527-1.03793879-4.21-1.1-1.24 0-2 .46-2 1.33s1.13 1.37 2.7 1.74c2.55.61 4.56 1.6 4.56 4.21s-2.12 4.35-5.57 4.35zm17.05-.46v-8.16c0-2-.79-2.63-2.23-2.63-1.1360082.01714087-2.2243026.45959498-3.05 1.24v9.55h-3.42v-19.38l3.42-.47v8.16c1.1360488-1.31805744 2.7801913-2.08920392 4.52-2.12 2.59 0 4.18 1.74 4.18 4.61v9.2zm14-1.54c-.8629986 1.2329201-2.265234 1.9768116-3.77 2-2.1317114.1487947-3.9805791-1.4583325-4.13-3.59-.0049626-.0598974-.0049626-.1201026 0-.18 0-2.47 1.79-4.55 7.91-4.76v-.32c0-1.79-.75-2.55-2.66-2.55-1.573272.10618124-3.0970911.59352878-4.44 1.42l-.7-2.7c1.6962662-1.00513608 3.6283659-1.54336383 5.6-1.56 4.12 0 5.71 1.83 5.63 5.51v4.79c0 1 .17 1.16 1.19 1.21l-.26 2.59c-2.56.29-3.75-.5-4.24-1.83zm0-4.76c-3.33.41-4.55 1.07-4.55 2.5.0104909.4747765.2092173.9259255.5524351 1.2541392.3432179.3282138.8027937.5065888 1.2775649.4958608h.17c.9766395-.0048269 1.9046223-.426968 2.55-1.16zm15.75-13.08 3.42-.47v19.85h-3.42v-1.32c-.972531 1.0620282-2.3308633 1.6889508-3.77 1.74-3.54 0-5.83-2.87-5.83-7-.0867315-1.8607187.5825386-3.67745727 1.8556651-5.03721662 1.2731264-1.35975935 3.0419394-2.14700893 4.9043349-2.18278338.9622854.00771046 1.9185631.15249897 2.84.43zm-2.52 8.3c-2.29 0-3.6 1.88-3.6 4.35s1.31 4.26 3.37 4.26c1.0262633.012495 2.015461-.3831841 2.75-1.1v-6.75c-.7371825-.51615688-1.6203618-.78251253-2.52-.76zm15.57 11.51c-3.92 0-6.76-2.67-6.76-7.11s3-7.16 6.93-7.16 6.76 2.73 6.76 7.13c.233848 3.7027707-2.5773371 6.8944506-6.28 7.13-.22.01-.43.02-.65.01zm.06-11.51c-2.24 0-3.45 1.79-3.45 4.37s1.27 4.36 3.51 4.36 3.42-1.74 3.42-4.33-1.28-4.4-3.48-4.4zm11.8 11.13-4-13.43h3.56l2.32 9.4 2.67-9.37h3.43l2.87 9.31 2-9.34h3.6299996l-3.9199996 13.43h-3.37l-3-9.39-2.9 9.39z" transform="translate(419.0563 405.47)"/><path d="m0 25.5c.04678621-10.6065538 5.82216417-20.35967555 15.1-25.5l4.13 5.35c-6.07 3.73-11.78 10.87-11.78 20.15s5.71 16.42 11.78 20.14l-4.13 5.35c-9.28547009-5.1275083-15.06447349-14.8829253-15.1-25.49zm37.59 3.06c0-2.15-2.3-2.86-6.53-4-4.64-1.28-10.25-3.42-10.25-9.79 0-5.92 4.34-9.85 12.24-9.85 4.1553682-.10894929 8.2694015.84812289 11.95 2.78l-1.58 6.68c-3.1746615-1.7085264-6.6975243-2.6696181-10.3-2.81-2.8 0-4.18 1-4.18 2.71 0 2.09 2.91 2.9 6.73 4 4.9 1.32 10 3.56 10 9.63s-4.69 10.36-13.06 10.36c-4.2728949.0487245-8.4926283-.950415-12.29-2.91l1.53-6.73c3.3457144 1.84837 7.0887099 2.8604541 10.91 2.95 2.84-.02 4.83-1.09 4.83-3.02zm28.3 8.92v-14c0-2.86-1.27-3.78-3.26-3.78-1.6337429.0361363-3.1967864.6734593-4.39 1.79v16h-7.85v-33.72l7.85-1v14.29c1.9607616-2.4299541 4.8795798-3.8893632 8-4 4.69 0 7.5 3.11 7.5 8.16v16.32zm26.11-2.86c-1.69 2-3.57 3.63-6.84 3.63-4.08 0-7.24-2.91-7.24-6.58 0-4.49 3.37-8.11 14-8.42v-.46c0-2.49-1.27-3.62-4.18-3.62-2.8109492.2006631-5.5427875 1.0202146-8 2.4l-1.64-5.76c3.3569457-1.7932994 7.0944541-2.7568222 10.9-2.81 8.21 0 10.91 3.73 10.81 10.35l-.05 7c0 1.63.3 1.79 1.93 1.94l-.76 5.61c-5.15.66-7.7-.71-8.77-3.32zm-.06-7.7c-4.84.56-6.62 1.48-6.62 3.57 0 1.53 1.22 2.55 2.95 2.55 1.4152975.048087 2.779871-.5299361 3.73-1.58zm28.88-23.15 7.85-1v34.68h-7.85v-2.39c-1.6792 1.9231699-4.078607 3.0667785-6.63 3.16-5.86 0-10.150215-4.79-10.150215-12.29-.039785-7.87 5.510215-12.87 11.880215-12.87 1.667358.0014708 3.323007.2785385 4.9.82zm-3.62 15.1c-3.32 0-5.3 2.7-5.3 6.63s2 6.42 4.94 6.42c1.504523.0505547 2.959325-.5422775 4-1.63v-10.4c-1.081384-.7022291-2.351175-1.0580496-3.64-1.02zm28.46 19.38c-7.14 0-12.6-4.49-12.6-12.55s5.71-12.7 12.9-12.7 12.55 4.59 12.55 12.55-5.76 12.7-12.85 12.7zm.1-19.28c-3.21 0-4.9 2.6-4.9 6.68s1.74 6.58 4.95 6.58 4.9-2.55 4.9-6.63-1.71-6.63-4.95-6.63zm21.24 18.61-6.68-23.81h7.95l3.21 15.76 4-15.76h8.21l4.08 15.5 2.76-15.5h8.16l-6.69 23.81h-7.95l-4.54-15.6-4.51 15.6zm31.75 8.06c6-3.72 11.78-10.86 11.78-20.14s-5.76-16.42-11.78-20.15l4.08-5.35c9.358662 5.06880801 15.188773 14.8568161 15.188773 25.5s-5.830111 20.431192-15.188773 25.5zm60.94-31.58c-2.433789-1.4697964-5.216979-2.2605539-8.06-2.29-5.5 0-9.07 3.72-9.07 9.74s3.36 9.89 9.12 9.89c3.000098-.0274159 5.926762-.9311365 8.42-2.6l1.68 7.19c-3.264629 1.546916-6.837571 2.3333052-10.45 2.3-10.2 0-16.93-5.87-16.93-16.58 0-10.3 6.68-16.83 17.18-16.83 3.655105.0009509 7.263532.82104782 10.56 2.4zm17.31 24.19c-7.14 0-12.59-4.49-12.59-12.55s5.71-12.7 12.9-12.7 12.54 4.59 12.54 12.55-5.73 12.7-12.85 12.7zm.1-19.28c-3.21 0-4.89 2.6-4.89 6.68s1.73 6.58 4.94 6.58 4.9-2.55 4.9-6.63-1.7-6.63-4.92-6.63zm32.62 18.51v-14c0-2.86-1.27-3.78-3.36-3.78-1.599557.0575814-3.123887.693607-4.29 1.79v16h-7.85v-23.3l7.85-1v3.87c1.952288-2.4515403 4.869242-3.9391868 8-4.08 4.74 0 7.54 3.11 7.54 8.16v16.32zm22.85.77c-5.86 0-9-2.4-8.72-8.62l.36-9-3.57-.61.15-5 3.57-1.17.1-5.41h7.6v5.62h5.94l-.15 6.17h-6.35l-.26 8.52c-.1 2.19 1.18 3.11 3.11 3.11 1.062501-.036723 2.11235-.2426418 3.11-.61l.92 6.12c-1.874966.6113884-3.83808.9087274-5.81.88zm15.86-10.77c.26 3.17 2.45 5 6.27 5 2.739354-.090785 5.410253-.8789754 7.76-2.29l.76 6.07c-2.895211 1.3206467-6.048198 1.9799387-9.23 1.93-8.06 0-13.26-4.48-13.26-12.39 0-7.75 5.3-12.8 12.85-12.8 6.73 0 10.400001 4 10.400001 9.95.000543 1.4088842-.170721 2.8125775-.510001 4.18l-15 .25zm8.26-4.07v-.46c0-2.81-1.17-4.54-3.62-4.54-2.7 0-4.33 2.34-4.59 5zm26.16 14.07-4.53-7.6-4.49 7.6h-8.47l8.16-12.09-7.95-11.62h8.31l4.39 6.83 4.23-6.83h8.36l-7.86 11.52 8.16 12.19zm20.46.77c-5.87 0-9-2.4-8.72-8.62l.35-9-3.57-.61.16-5 3.57-1.17.1-5.41h7.6v5.62h5.91l-.15 6.17h-6.33l-.25 8.52c-.1 2.19 1.17 3.11 3.11 3.11 1.062501-.036723 2.11235-.2426418 3.11-.61l.92 6.12c-1.874966.6113884-3.83808.9087274-5.81.88z" transform="translate(264 343.94)"/><path d="m2.3437351 20.28c-.5759214.0468969-1.14676327-.1378391-1.58601229-.5132656-.43924903-.3754265-.71062634-.910536-.75398771-1.4867344-.00498013-.0632354-.00498013-.1267646 0-.19 0-1.1763665.95363349-2.13 2.13-2.13h.22c1.14283577-.0981661 2.14943028.7473732 2.25 1.89.00498644.0765856.00498644.1534144 0 .23.01070885.5649398-.20349398 1.1109852-.5954662 1.5179611-.39197223.406976-.92959027.6415293-1.4945338.6520389zm-2.06-19.35h4.14l-.84 13h-2.38zm14.33 19.32c-1.0170117-.0070932-2.0275866-.162048-3-.46l-3.28.49v-19.81l3.42-.47v7.73c.9716849-1.04187135 2.3163345-1.65667101 3.74-1.71 3.54 0 5.86 2.87 5.86 7s-2.93 7.23-6.74 7.23zm-.09-11.34000313c-1.0271062-.00128107-2.0153482.39258349-2.76 1.10000313v6.72c.7395929.5179402 1.6276215.7811898 2.53.75 2.29 0 3.59-1.85 3.59-4.35s-1.24-4.22000313-3.36-4.22000313zm13.05 10.94000313h-3.43v-13.29l3.43-.49v2.17c.639447-1.34238886 1.9930915-2.1981411 3.48-2.2.8344385-.02031835 1.6582071.19081562 2.38.61l-.76 3.07c-.5830442-.33062066-1.2398218-.50942923-1.91-.52-1.19 0-2.29.75-3.19 2.38zm13.74.43c-3.91 0-6.75-2.67-6.75-7.11s3-7.16 6.93-7.16 6.76 2.73 6.76 7.13c.2279618 3.7081671-2.5919819 6.8996272-6.3 7.13-.22.01-.43.02-.64.01zm.11-11.55c-2.23 0-3.45 1.8-3.45 4.38s1.28 4.36 3.51 4.36 3.42-1.74 3.42-4.33-1.32-4.41-3.48-4.41zm11.75 11.17-4-13.43h3.57l2.32 9.4 2.67-9.37h3.42l2.87 9.31 2-9.34h3.63l-3.92 13.43h-3.31l-3-9.39-2.9 9.39zm22.77.41c-1.8043694-.0015406-3.5827864-.4298684-5.19-1.25l.75-2.67c1.3848766.7812867 2.9404297 1.2105232 4.53 1.25 1.33 0 2.2-.55 2.2-1.48s-1.13-1.42-2.7-1.8c-2.52-.58-4.52-1.62-4.52-4.14s2.12-4.18 5.34-4.18c1.6813245.00291233 3.3423066.3678509 4.87 1.07l-.75 2.67c-1.3087662-.66287107-2.7442526-1.03793879-4.21-1.1-1.25 0-2 .46-2 1.33s1.13 1.37 2.7 1.74c2.55.61 4.55 1.6 4.55 4.21s-2.15 4.35-5.57 4.35zm10.93-6.41c.0209919.9919841.4353047 1.9349726 1.1517439 2.6214039s1.6762817 1.0600418 2.6682561 1.0385961h.18c1.4733265-.0222916 2.9135748-.4402054 4.17-1.21l.44 2.84c-1.5065605.7460886-3.1689772 1.1231315-4.85 1.1-4.29 0-7.13-2.73-7.13-7s2.92-7.26 6.92-7.26c3.54 0 5.51 2.14 5.51 5.42-.0009253.7559668-.0983802 1.5087213-.29 2.24l-8.76.11zm5.83-2.12v-.23c0-1.8-.78-2.93-2.55-2.93-1.7397411.05212277-3.1378772 1.4502589-3.19 3.19zm9.4799999 8.07h-3.4199999v-13.29l3.4199999-.49v2.17c.639447-1.34238886 1.993092-2.1981411 3.48-2.2.834439-.02031835 1.658207.19081562 2.38.61l-.75 3.07c-.583044-.33062066-1.239822-.50942923-1.91-.52-1.19 0-2.3.75-3.2 2.38z" transform="translate(414.5763 90.27)"/><path d="m2.34372936 19.35c-.57652694.0496569-1.14887065-.13409-1.58875355-.5100583-.43988291-.3759683-.71051719-.9127154-.75124645-1.4899417-.00497248-.0699117-.00497248-.1400883 0-.21-.00533734-.563064.21460714-1.1049031.61088887-1.5049411.39628173-.4000379.93602182-.6250842 1.49911113-.6250589h.24c1.14283577-.0981661 2.14943027.7473732 2.25 1.89.00498644.0765856.00498644.1534144 0 .23.01070885.5649398-.20349399 1.1109852-.59546621 1.5179611-.39197222.406976-.92959026.6415293-1.49453379.6520389zm-2.06-19.35h4.09l-.84 13h-2.38zm11.37000004 5.54v8.15c0 2 .81 2.61 2.26 2.61 1.0871316-.0078479 2.1321127-.4215606 2.93-1.16v-9.6h3.42v13.29l-3.42.46v-2c-1.1332371 1.2436246-2.7278212 1.966792-4.41 2-2.61000004 0-4.21000004-1.74-4.21000004-4.61v-9.24zm16.41 13.84c-1.8043695-.0015406-3.5827864-.4298684-5.19-1.25l.75-2.67c1.3848766.7812867 2.9404297 1.2105232 4.53 1.25 1.33 0 2.2-.55 2.2-1.48s-1.13-1.42-2.7-1.8c-2.52-.58-4.52-1.62-4.52-4.14s2.12-4.18 5.34-4.18c1.6813244.00291233 3.3423066.3678509 4.87 1.07l-.75 2.67c-1.3087662-.66287107-2.7442527-1.03793879-4.21-1.1-1.25 0-2 .46-2 1.33s1.13 1.37 2.7 1.74c2.55.61 4.55 1.6 4.55 4.21s-2.15 4.35-5.57 4.35zm10.93-6.41c.0209918.9919841.4353047 1.9349726 1.1517439 2.6214039s1.6762817 1.0600418 2.6682561 1.0385961h.18c1.4733265-.0222916 2.9135748-.4402054 4.17-1.21l.44 2.84c-1.5065606.7460886-3.1689772 1.1231315-4.85 1.1-4.29 0-7.13-2.73-7.13-7s2.9-7.25 6.9-7.25c3.54 0 5.51 2.14 5.51 5.42-.0009254.7559668-.0983802 1.5087213-.29 2.24l-8.76.11zm5.83-2.12v-.23c0-1.8-.78-2.93-2.55-2.93-1.7397412.05212277-3.1378773 1.45025889-3.19 3.19zm9.48 8.07h-3.42v-13.29l3.42-.49v2.17c.639447-1.34238886 1.9930915-2.1981411 3.48-2.2.8344385-.02031835 1.6582071.19081562 2.38.61l-.75 3.07c-.5830442-.33062066-1.2398219-.50942923-1.91-.52-1.19 0-2.3.75-3.2 2.38z" transform="translate(438.5163 128.56)"/><path d="m2.34373888 20.28c-.57713419.0524635-1.1510082-.1302772-1.59153903-.5067993-.44053084-.3765221-.71040942-.9149375-.74846097-1.4932007-.00498517-.0732486-.00498517-.1467514 0-.22 0-1.1708437.94915633-2.12 2.12-2.12h.23c.56348791-.0439346 1.12059248.1433319 1.54313085.518712s.67412364.9065478.69686915 1.471288c.00498518.0732486.00498518.1467514 0 .22.0134176.5649552-.19822266 1.1120861-.58833128 1.52095-.39010863.4088638-.92670624.6459437-1.49166872.65905zm-2.07-19.35h4.1l-.85 13h-2.37zm15.09000002 17.38c-.8674146 1.227914-2.2669027 1.970348-3.77 2-2.13722952.1487809-3.99056605-1.4628161-4.14000002-3.6-.0048254-.0565639-.0048254-.1134361 0-.17 0-2.47 1.8-4.56 7.92000002-4.76v-.32c0-1.8-.76-2.55-2.67-2.55-1.573272.10618124-3.09709105.59352878-4.44000002 1.42l-.7-2.7c1.69626628-1.00513608 3.62836592-1.54336383 5.60000002-1.56 4.12 0 5.72 1.83 5.63 5.51v4.79c0 1 .17 1.16 1.19 1.21l-.26 2.59c-2.55.29-3.74-.5-4.24-1.83zm0-4.76c-3.34.41-4.56 1.07-4.56 2.5.0104909.4747765.2092173.9259255.5524351 1.2541392.3432179.3282138.8027937.5065888 1.2775649.4958608h.17c.978743-.0083138 1.9084566-.4295903 2.56-1.16zm10.23-7.08v8.15c0 2 .81 2.61 2.26 2.61 1.0871316-.0078479 2.1321128-.4215606 2.93-1.16v-9.6h3.43v13.29l-3.43.46v-2c-1.1294428 1.2430786-2.7207866 1.9664167-4.4 2-2.61 0-4.21-1.74-4.21-4.61v-9.2zm17 13.81c-3 0-4.56-1.3-4.44-4.52l.2-6.3-2.09-.23.09-2.18 2.09-.66.06-3h3.3l-.05 3.13h3.77l-.09 2.81h-3.89l-.17 6.18c-.0723403.4126749.0232636.8371453.2655383 1.1789591.2422746.3418138.6111201.5726131 1.0244617.6410409.1590293.0249245.3209707.0249245.48 0 .7144302-.0211864 1.4205154-.1597008 2.09-.41l.46 2.79c-.9909596.3737557-2.0409041.56681-3.1.57zm14.35-.43v-8.16c0-2-.78-2.64-2.23-2.64-1.1371636.02082085-2.2252964.46677688-3.05 1.25v9.55h-3.42v-19.38l3.42-.47v8.16c1.1399305-1.31855619 2.7872718-2.08949733 4.53-2.12 2.58 0 4.17 1.74 4.17 4.61v9.2zm12.95.43c-3.91 0-6.75-2.67-6.75-7.11s3-7.16 6.93-7.16 6.76 2.73 6.76 7.13c.2279618 3.7081671-2.5919819 6.8996272-6.3 7.13-.22.01-.43.02-.64.01zm.06-11.52c-2.23 0-3.45 1.8-3.45 4.38s1.28 4.36 3.51 4.36 3.42-1.74 3.42-4.33-1.26-4.41-3.47-4.41zm13.18 11.09h-3.43v-13.32l3.43-.49v2.17c.639447-1.34238886 1.9930915-2.1981411 3.48-2.2.8344385-.02031835 1.6582071.19081562 2.38.61l-.76 3.07c-.5830442-.33062066-1.2398218-.50942923-1.91-.52-1.19 0-2.29.75-3.19 2.38z" transform="translate(424.1063 167.07)"/><path d="m7.91361905 18.31c-.86741454 1.227914-2.26690268 1.970348-3.77 2-2.1372295.1487809-3.99056604-1.4628161-4.14-3.6-.0048254-.0565639-.0048254-.1134361 0-.17 0-2.47 1.8-4.55 7.92-4.76v-.32c0-1.8-.75-2.55-2.67-2.55-1.57006501.10658986-3.09054636.59396763-4.43 1.42l-.7-2.7c1.69436217-1.009591 3.62769247-1.54816159 5.6-1.56 4.12 0 5.70999995 1.83 5.62999995 5.51v4.79c0 1 .17 1.16 1.18 1.21l-.26 2.59c-2.54999995.29-3.73999995-.5-4.22999995-1.83zm0-4.76c-3.33.41-4.55 1.07-4.55 2.5.01049093.4747765.2092173.9259255.55243515 1.2541392.34321785.3282138.80279365.5065888 1.27756485.4958608h.17c.97580169-.008629 1.90230678-.430098 2.55-1.16zm10.23999995-7.08v8.15c0 2 .81 2.61 2.26 2.61 1.0871317-.0078479 2.1321128-.4215606 2.93-1.16v-9.6h3.42v13.29l-3.42.46v-2c-1.133237 1.2436246-2.7278211 1.966792-4.41 2-2.61 0-4.2-1.74-4.2-4.61v-9.2zm16.99 13.81c-3 0-4.55-1.3-4.44-4.52l.21-6.3-2.09-.23.09-2.18 2.08-.66.06-3h3.31l-.06 3.13h3.77l-.08 2.81h-3.89l-.18 6.18c-.0723403.4126749.0232637.8371453.2655383 1.1789591s.6111201.5726131 1.0244617.6410409c.1590294.0249245.3209707.0249245.48 0 .7144302-.0211864 1.4205154-.1597008 2.09-.41l.47 2.79c-.9949082.3720345-2.0478196.5650119-3.11.57zm14.36-.43v-8.16c0-2-.79-2.64-2.24-2.64-1.1199862.03219902-2.1885074.47741619-3 1.25v9.55h-3.42v-19.38l3.42-.47v8.16c1.1360489-1.31805744 2.7801914-2.08920392 4.52-2.12 2.58 0 4.18 1.74 4.18 4.61v9.2zm12.96.43c-3.92 0-6.76-2.67-6.76-7.11s3-7.16 6.93-7.16 6.76 2.73 6.76 7.13c.2279618 3.7081671-2.5919818 6.8996272-6.3 7.13-.21.01-.44.02-.63.01zm.06-11.52c-2.24 0-3.45 1.8-3.45 4.38s1.27 4.36 3.51 4.36 3.42-1.74 3.42-4.33-1.28-4.41-3.48-4.41zm13.13 11.09h-3.42v-13.29l3.42-.49v2.17c.6394471-1.34238886 1.9930915-2.1981411 3.48-2.2.8344386-.02031835 1.6582072.19081562 2.38.61l-.75 3.07c-.5869801-.3298592-1.2467824-.50855567-1.92-.52-1.19 0-2.29.75-3.19 2.38z" transform="translate(427.3464 208.07)"/><path d="m3.42.43133974v8.15c0 1.99999996.81 2.60999996 2.26 2.60999996 1.08713162-.0078479 2.13211277-.4215606 2.93-1.16v-9.59999996h3.43v13.28999996l-3.43.46v-2c-1.13037829 1.2475497-2.72675175 1.9715286-4.41 2-2.61 0-4.2-1.74-4.2-4.60999996v-9.2zm16.38 13.85999996c-1.8077048-.0003415-3.5896429-.428692-5.2-1.25l.76-2.67c1.3812771.7812332 2.9335911 1.2105236 4.52 1.25 1.34 0 2.21-.55 2.21-1.48 0-.92999996-1.13-1.41999996-2.7-1.79999996-2.52-.58-4.53-1.62-4.53-4.15s2.12-4.17 5.34-4.17c1.6813245.00291233 3.3423066.36785091 4.87 1.07l-.75 2.67c-1.3087662-.66287107-2.7442526-1.03793879-4.21-1.1-1.24 0-2 .46-2 1.33s1.13 1.37 2.7 1.74c2.55.61 4.56 1.6 4.56 4.21 0 2.60999996-2.15 4.34999996-5.57 4.34999996zm10.93-6.42999996c.0157853.98664675.422934 1.92659713 1.1318497 2.61300766.7089158.6864105 1.6615077 1.0630343 2.6481503 1.0469923h.22c1.4767327-.0205024 2.9206662-.4384832 4.18-1.21l.43 2.84c-1.5010443.7515431-3.161574 1.1289362-4.84 1.1-4.29 0-7.14-2.73-7.14-6.99999996 0-4.27 2.9-7.25 6.91-7.25 3.54 0 5.51 2.14 5.51 5.42-.0009254.75596684-.0983802 1.50872129-.29 2.24l-8.76.11zm5.83-2.12v-.23c0-1.8-.78-2.93-2.55-2.93-1.7394239.05672558-3.1378305 1.45076217-3.2 3.19zm9.48 8.06999996h-3.42v-13.28999996l3.42-.49v2.17c.639447-1.34238886 1.9930915-2.1981411 3.48-2.2.8344385-.02031835 1.6582071.19081562 2.38.61l-.76 3.07c-.5830442-.33062065-1.2398218-.50942923-1.91-.52-1.19 0-2.29.75-3.19 2.38z" transform="translate(442.58 250.7087)"/><path d="m6.28 20.25c-1.01701175-.0070932-2.02758661-.162048-3-.46l-3.28.49v-19.81l3.43-.47v7.73c.97168492-1.04187135 2.31633448-1.65667101 3.74-1.71 3.54 0 5.86 2.87 5.86 7s-2.97 7.23-6.75 7.23zm-.09-11.34c-1.02364967.00127924-2.00785421.39496106-2.75 1.1v6.72c.73521835.5191854 1.62053799.7826733 2.52.75 2.29 0 3.6-1.85 3.6-4.35s-1.28-4.22-3.39-4.22zm13.03 10.94h-3.42v-13.29l3.42-.49v2.18c.639447-1.34238886 1.9930915-2.1981411 3.48-2.2.8344385-.02031835 1.6582071.19081562 2.38.61l-.75 3.08c-.5869801-.3298592-1.2467825-.50855567-1.92-.52-1.18 0-2.29.75-3.19 2.38zm13.75.4c-3.92 0-6.76-2.67-6.76-7.11s3-7.16 6.93-7.16 6.76 2.73 6.76 7.13c.233848 3.7027707-2.5773371 6.8944506-6.28 7.13-.22.01-.43.01-.65.01zm.06-11.55c-2.24 0-3.45 1.8-3.45 4.38s1.27 4.36 3.51 4.36 3.42-1.74 3.42-4.33-1.23-4.38-3.48-4.38zm11.8 11.2-4-13.43h3.56l2.32 9.4 2.67-9.37h3.43l2.87 9.31 2-9.34h3.6l-3.91 13.43h-3.37l-3-9.39-2.91 9.39zm22.76.41c-1.8037869-.0064016-3.5810919-.4344616-5.19-1.25l.76-2.67c1.3812771.7812332 2.9335911 1.2105236 4.52 1.25 1.34 0 2.21-.55 2.21-1.48s-1.14-1.42-2.7-1.8c-2.53-.58-4.53-1.62-4.53-4.14s2.12-4.18 5.34-4.18c1.6813245.00291233 3.3423066.3678509 4.87 1.07l-.75 2.67c-1.3087662-.66287107-2.7442526-1.03793879-4.21-1.1-1.24 0-2 .46-2 1.33s1.13 1.37 2.7 1.74c2.55.61 4.55 1.6 4.55 4.21s-2.14 4.35-5.57 4.35zm10.94-6.41c.0157853.9866467.422934 1.9265971 1.1318497 2.6130076.7089158.6864106 1.6615077 1.0630344 2.6481503 1.0469924h.22c1.4767327-.0205025 2.9206662-.4384832 4.18-1.21l.43 2.84c-1.5120999.7363887-3.1785942 1.0998628-4.86 1.06-4.3 0-7.14-2.73-7.14-7s2.9-7.25 6.91-7.25c3.54 0 5.5100029 2.14 5.5100029 5.42.0006216.7698809-.1002474 1.5364849-.3000029 2.28l-8.76.11zm5.83-2.12v-.23c0-1.8-.78-2.93-2.55-2.93-1.7394239.05672558-3.1378305 1.4507622-3.2 3.19zm9.48 8.07h-3.42v-13.29l3.42-.49v2.18c.639447-1.34238886 1.9930915-2.1981411 3.48-2.2.8344385-.02031835 1.6582071.19081562 2.38.61l-.76 3.08c-.5830442-.33062066-1.2398218-.50942923-1.91-.52-1.19 0-2.29.75-3.19 2.38z" transform="translate(418.72 285.75)"/><path d="m16.63 36.26c-9.44 0-16.63-5.87-16.63-16.63 0-10.1 7.24-16.78 16.73-16.78s16.67 5.82 16.67 16.58c0 10.09-7.29 16.83-16.77 16.83zm0-26.88c-5.41 0-8.47 4.08-8.47 10s3.16 10.3 8.62 10.3 8.46-4.13 8.46-10.1-3.21-10.2-8.61-10.2zm29.42 26.11h-7.85v-23.3l7.85-1v3.46c1.38-2.39 3.22-3.67 5.71-3.67 1.370582.018354 2.7173333.3610388 3.93 1l-1.58 6.94c-.9298604-.4715054-1.9574291-.7181219-3-.72-1.93 0-3.67 1-5.1 3.47zm16.53-27.08c-2.86 0-4.64-1.48-4.64-4.18s1.78-4.23 4.64-4.23 4.64 1.48 4.64 4.23-1.74 4.18-4.64 4.18zm-3.89 27.08v-23.3l7.85-1v24.3zm12.05-2.7c0-2.25 2-4.44 4.89-5.25-2.9069803-1.2903405-4.7833419-4.1695175-4.79-7.35 0-5.15 4.23-9.18 11.27-9.18 2.5046435.0533693 4.9705681.6289788 7.24 1.69l6.68-.57.36 6.38-4.59-.72c.4511844.7946262.6792242 1.6964199.66 2.61 0 4.79-4.28 8.56-10.4 8.56-1.0617105-.0214752-2.1193237-.1386159-3.16-.35-.7415757.2811593-1.2707001.9444819-1.38 1.73 0 1.07 1.22 1.48 4.33 1.48h2.84c6.48 0 11 1.63 11 6.68 0 5.91-7.09 9.74-14.84 9.74-6.37 0-11.57-2-11.57-6.17 0-2.35 1.88-4.54 5.66-5-2.16-.61-4.2-2.09-4.2-4.28zm5.35 7.75c0 1.83 2.35 3.11 6 3.11 3.82 0 6.73-1.17 6.73-3.21s-2.02-2.37-6.13-2.37c-1.48 0-3.82-.1-4.69-.15-1.1092902.4048993-1.863904 1.440024-1.91 2.62zm6-16.12c2.39 0 3.47-1.73 3.47-4.38s-1.18-4.18-3.63-4.18c-2.24 0-3.56 1.73-3.56 4.38s1.19 4.18 3.69 4.18zm20.88-16.01c-2.86 0-4.64-1.48-4.64-4.18s1.78-4.23 4.64-4.23 4.64 1.48 4.64 4.23-1.73 4.18-4.64 4.18zm-3.93 27.08v-23.3l7.86-1v24.3zm28.97 0v-14c0-2.86-1.28-3.78-3.37-3.78-1.597069.0554412-3.118979.6919412-4.28 1.79v16h-7.85v-23.31l7.85-1v3.88c1.939271-2.4408237 4.836294-3.9275973 7.95-4.08 4.75 0 7.55 3.11 7.55 8.16v16.34zm33.4.77c-6 0-10.25-3.52-10.25-8.72 0-4.44 3.52-7.55 7.24-8.47-2.799471-1.3695879-4.612023-4.1750028-4.71-7.29 0-4.34 3.67-8.88 10.46-8.88 5.91 0 10.14 3.12 10.14 7.76 0 3.57-3 6.06-6.12 7 1.588256.9527202 3.052688 2.0980668 4.36 3.41l3-5.46h8.31l-7.29 9.54 7.65 9.53-8 1.43-4-5.71c-3.19 3.92-7.06 5.86-10.79 5.86zm.51-15.19c-2.09 1.22-3.52 3-3.52 4.9 0 2.65 2 4.28 4.59 4.28s4.44-1.48 6.12-3.83c-1.989918-2.2732875-4.440881-4.0970217-7.19-5.35zm5.61-9.54c.056116-1.85220649-1.397909-3.40018434-3.25-3.46h-.37c-1.820913-.06191341-3.349495 1.35939895-3.42 3.18v.13c0 2.14 1.69 3.42 4.14 4.49 1.63-1 2.9-2.26 2.9-4.3zm31.16 23.96v-31.87h8.11v31.87zm44.17 0v-14c0-2.86-1.23-3.83-3.22-3.83-1.416976.0287275-2.774966.5726345-3.82 1.53v16.3h-7.85v-14c0-2.86-1.28-3.83-3.27-3.83-1.401256-.0035097-2.757062.4969316-3.82 1.41v16.4h-7.85v-23.28l7.85-1v3.31c1.904137-2.1902245 4.648228-3.4695885 7.55-3.52 2.886042-.1029198 5.539061 1.5770609 6.68 4.23 1.978184-2.5526667 4.983136-4.1008937 8.21-4.23 4.58 0 7.39 3.11 7.39 8.21v16.3zm27.83-24.48c5.87 0 10.15 4.8 10.15 12.34 0 7.86-5.45 12.85-11.88 12.85-1.660903-.0221589-3.310419-.2780022-4.9-.76v10.63h-7.85v-33.88l7.85-1v3c1.668877-1.9394469 4.072863-3.0924899 6.63-3.18zm-6.62 18.36c1.082229.6817127 2.341298 1.0295217 3.62 1 3.37 0 5.31-2.65 5.31-6.58s-1.74-6.47-4.95-6.47c-1.497872-.0145493-2.938916.572676-4 1.63zm32.54 6.89c-7.14 0-12.59-4.49-12.59-12.55s5.71-12.7 12.9-12.7 12.54 4.59 12.54 12.55-5.77 12.7-12.85 12.7zm.1-19.28c-3.21 0-4.89 2.6-4.89 6.68s1.73 6.58 4.94 6.58 4.9-2.55 4.9-6.63-1.73-6.63-5-6.63zm24.98 18.51h-7.85v-23.3l7.85-1v3.46c1.38-2.39 3.21-3.67 5.71-3.67 1.370582.018354 2.717333.3610388 3.93 1l-1.64 6.94c-.92986-.4715054-1.957429-.7181219-3-.72-1.94 0-3.67 1-5.1 3.47zm22.61.77c-5.87 0-9-2.4-8.73-8.62l.36-9-3.57-.57.16-5 3.56-1.17.11-5.41h7.6l-.1 5.58h6l-.15 6.17h-6.33l-.25 8.52c-.1 2.19 1.17 3.11 3.11 3.11 1.062501-.036723 2.11235-.2426418 3.11-.61l.92 6.12c-1.871486.6115529-3.83134.9089102-5.8.88zm22.49-3.63c-1.69 2-3.57 3.63-6.84 3.63-4.08 0-7.24-2.91-7.24-6.58 0-4.49 3.37-8.11 14-8.42v-.46c0-2.49-1.27-3.62-4.18-3.62-2.826996.1992665-5.57542 1.0186722-8.05 2.4l-1.64-5.76c3.362222-1.7982224 7.107412-2.7619571 10.92-2.81 8.21 0 10.91 3.73 10.81 10.35v7c0 1.63.3 1.79 1.93 1.94l-.81 5.65c-5.15.66-7.7-.71-8.77-3.32zm-.06-7.7c-4.84.56-6.62 1.48-6.62 3.57 0 1.53 1.22 2.5500007 3 2.5500007 1.362533.0007228 2.662261-.5728999 3.58-1.5800007zm28.82 10.56v-14c0-2.86-1.28-3.78-3.37-3.78-1.597069.0554412-3.118979.6919412-4.28 1.79v16h-7.85v-23.31l7.85-1v3.88c1.952288-2.4515403 4.869242-3.9391868 8-4.08 4.74 0 7.54 3.11 7.54 8.16v16.34zm24.94.77c-7.86 0-12.85-4.39-12.85-12.45 0-7.85 5.1-12.8 13-12.8 2.994728-.0584733 5.956978.6288237 8.62 2l-1.57 5.92c-1.877864-1.1138552-3.999299-1.7523451-6.18-1.86-3.82 0-5.82 2.66-5.82 6.49 0 4.23 2.4 6.58 6.07 6.58 2.217547.0106449 4.392303-.6102183 6.27-1.79l1.18 6c-2.696047 1.3703706-5.697967 2.0279012-8.72 1.91zm19.2-10.77c.25 3.17 2.44 5 6.27 5 2.729394-.0940952 5.38978-.8822303 7.73-2.29l.76 6.07c-2.892114 1.3300627-6.047264 1.9898069-9.23 1.93-8 0-13.25-4.48-13.25-12.39 0-7.75 5.3-12.8 12.85-12.8 6.73 0 10.400001 4 10.400001 10 .000543 1.4088842-.170721 2.8125775-.510001 4.18l-15 .25zm8.26-4.07v-.46c0-2.81-1.18-4.54-3.62-4.54-2.71 0-4.34 2.34-4.59 5z" transform="translate(248.31 24.93)"/></g></g></svg>